<svg width="138" height="61" viewBox="0 0 138 61" fill="none" xmlns="http://www.w3.org/2000/svg">
<rect x="0.5" y="0.5" width="137" height="60" rx="2.5" stroke="#050505"/>
<g clip-path="url(#clip0_1586_1140)">
<path d="M42.7956 31.535C42.7552 27.3592 46.2611 25.3529 46.4188 25.2574C44.4455 22.4192 41.3803 22.0291 40.2885 21.9853C37.6803 21.7225 35.1975 23.4979 33.8711 23.4979C32.5448 23.4979 30.5027 22.0211 28.3393 22.0649C25.4925 22.1047 22.8681 23.693 21.4002 26.2008C18.4483 31.2404 20.6481 38.7241 23.5313 42.8202C24.9425 44.8225 26.6166 47.0796 28.8245 46.996C30.9515 46.9124 31.7522 45.6426 34.3159 45.6426C36.8797 45.6426 37.6035 46.996 39.8478 46.9562C42.1325 46.9124 43.5801 44.9101 44.9793 42.8999C46.5887 40.5712 47.2559 38.3221 47.2963 38.2026C47.2438 38.1827 42.8442 36.5228 42.7956 31.535Z" fill="black"/>
<path d="M38.5751 19.2704C39.7478 17.8732 40.5363 15.9346 40.322 14C38.6357 14.0677 36.5937 15.1066 35.3846 16.5039C34.3009 17.7379 33.3506 19.7123 33.6094 21.6071C35.4816 21.7504 37.4064 20.6637 38.5751 19.2704ZM57.5807 35.6391L55.6397 41.431H53.1447L59.4974 23.0242H62.4089L68.7859 41.431H66.2059L64.2083 35.6391H57.5807ZM63.711 33.7801L61.8832 28.4818C61.4667 27.2796 61.1917 26.1889 60.9127 25.1221H60.8601C60.5811 26.2128 60.2778 27.3314 59.9179 28.4539L58.0902 33.7761L63.711 33.7801ZM70.6783 32.5262C70.6783 30.8344 70.6258 29.465 70.5651 28.2111H72.7568L72.87 30.4801H72.9226C73.9214 28.8679 75.5025 27.9125 77.6942 27.9125C80.9413 27.9125 83.3797 30.6154 83.3797 34.632C83.3797 39.3849 80.4399 41.7296 77.2777 41.7296C75.5025 41.7296 73.9497 40.9653 73.145 39.6556H73.0924V46.8368H70.6783V32.5262ZM73.0884 36.0491C73.0884 36.4074 73.141 36.7298 73.2016 37.0323C73.6464 38.6963 75.1143 39.8467 76.8652 39.8467C79.4452 39.8467 80.9454 37.7727 80.9454 34.7394C80.9454 32.0883 79.5301 29.8273 76.9502 29.8273C75.2882 29.8273 73.7354 31.0016 73.2582 32.8048C73.1733 33.1034 73.0924 33.4616 73.0924 33.7881L73.0884 36.0491ZM85.903 32.5262C85.903 30.8344 85.8504 29.465 85.7898 28.2111H87.9815L88.0947 30.4801H88.1473C89.1461 28.8679 90.7272 27.9125 92.9189 27.9125C96.166 27.9125 98.6044 30.6154 98.6044 34.632C98.6044 39.3849 95.6646 41.7296 92.5024 41.7296C90.7272 41.7296 89.1744 40.9653 88.3697 39.6556H88.3171V46.8368H85.903V32.5262ZM88.3171 36.0491C88.3171 36.4074 88.3697 36.7298 88.4303 37.0323C88.8752 38.6963 90.343 39.8467 92.094 39.8467C94.6739 39.8467 96.1741 37.7727 96.1741 34.7394C96.1741 32.0883 94.7588 29.8273 92.1789 29.8273C90.5169 29.8273 88.9641 31.0016 88.4869 32.8048C88.402 33.1034 88.3212 33.4616 88.3212 33.7881L88.3171 36.0491ZM101.132 22.041H103.574V41.427H101.132V22.041ZM108.483 35.2569C108.536 38.5052 110.647 39.8467 113.085 39.8467C114.832 39.8467 115.887 39.5481 116.801 39.166L117.218 40.8856C116.36 41.2678 114.889 41.7057 112.753 41.7057C108.621 41.7057 106.15 39.0306 106.15 35.042C106.15 31.0533 108.536 27.9125 112.446 27.9125C116.83 27.9125 117.994 31.7062 117.994 34.1384C117.994 34.632 117.942 35.0101 117.909 35.2569H108.483ZM115.641 33.5373C115.669 32.0087 115.002 29.6322 112.256 29.6322C109.785 29.6322 108.706 31.8733 108.512 33.5373H115.641Z" fill="black"/>
</g>
<defs>
<clipPath id="clip0_1586_1140">
<rect width="98" height="33" fill="white" transform="translate(20 14)"/>
</clipPath>
</defs>
</svg>
