<svg width="139" height="61" viewBox="0 0 139 61" fill="none" xmlns="http://www.w3.org/2000/svg">
<rect x="0.898438" y="0.5" width="137" height="60" rx="2.5" stroke="#050505"/>
<path fill-rule="evenodd" clip-rule="evenodd" d="M107.55 25.0297H110.449C110.128 25.2782 109.935 25.5825 109.935 25.9991V35.9544C109.935 36.3704 110.136 36.667 110.449 36.915H107.55C107.863 36.667 108.056 36.3627 108.056 35.9544V25.9986C108.056 25.582 107.871 25.2777 107.55 25.0297ZM40.3763 29.3062C39.9027 28.2892 39.3809 27.2881 38.5057 26.5596C37.5746 25.7747 36.3938 25.3023 35.1735 25.3023C31.9301 25.3023 30.4766 28.2252 30.4766 31.1005C30.4766 33.8799 31.8659 36.6906 34.9968 36.6906C36.2731 36.6906 37.5181 36.1383 38.3044 35.1367V32.8942C38.3044 32.2855 38.1036 31.8936 37.6301 31.5334H40.9459C40.5925 31.9335 40.3763 32.3419 40.3763 32.8942V35.1367C38.8586 36.5466 36.9721 37.411 34.8766 37.411C31.1756 37.411 28.1484 34.6961 28.1484 30.916C28.1484 27.16 31.135 24.5891 34.7883 24.5891C37.0605 24.5891 38.8987 25.4222 40.3763 27.096V29.3062ZM48.501 25.0297H51.6242C51.1984 25.3417 51.0541 25.6942 51.0541 26.2148V33.4793C51.0541 35.4728 53.3982 36.4503 55.1167 36.4503C56.8028 36.4503 59.0026 35.4656 59.0026 33.5192V26.2148C59.0026 25.726 58.8819 25.3899 58.5532 25.0297H60.2553C59.9101 25.3822 59.7817 25.7342 59.7817 26.2148V33.5192C59.7817 36.146 56.675 37.1548 54.523 37.1548C52.3073 37.1548 49.0716 36.1783 49.0716 33.4793V26.2148C49.0711 25.7183 48.8703 25.3499 48.501 25.0297ZM79.7799 29.3462C79.3628 28.2969 78.8729 27.3762 78.0136 26.6154C77.0907 25.7982 75.9664 25.2859 74.7224 25.2859C71.5114 25.2859 69.8653 28.0889 69.8653 30.9964C69.8653 33.9194 71.5756 36.6824 74.7466 36.6824C77.1071 36.6824 78.7933 35.0245 79.7804 33.0299V35.1925C78.312 36.6424 76.4168 37.3792 74.3455 37.3792C70.5073 37.3792 67.6332 34.9046 67.6332 30.9565C67.6332 27.1206 70.3948 24.5978 74.1606 24.5978C76.2478 24.5978 78.2704 25.3187 79.7799 26.7522V29.3462ZM99.9157 29.3462C99.4986 28.2969 99.0076 27.3762 98.1494 26.6154C97.2264 25.7982 96.1022 25.2859 94.8582 25.2859C91.6462 25.2859 90.0083 28.0889 90.0083 30.9964C90.0083 33.9194 91.7104 36.6824 94.8824 36.6824C97.2429 36.6824 98.9362 35.0245 99.9162 33.0299V35.1925C98.4468 36.6424 96.5598 37.3792 94.4812 37.3792C90.6431 37.3792 87.7695 34.9046 87.7695 30.9565C87.7695 27.1206 90.5311 24.5978 94.2958 24.5978C96.3831 24.5978 98.4067 25.3187 99.9162 26.7522L99.9157 29.3462Z" fill="black"/>
</svg>
