<svg width="92" height="61" viewBox="0 0 92 61" fill="none" xmlns="http://www.w3.org/2000/svg">
<rect x="0.898438" y="0.5" width="89.8" height="60" rx="2.5" stroke="#050505"/>
<path fill-rule="evenodd" clip-rule="evenodd" d="M34.3845 31.6412H30.2974L30.762 24.5438L28.1078 31.6412H24.3125L30.3345 15.5991H34.3728L33.9067 22.7939L36.6112 15.5991H40.4068L34.3845 31.6412ZM34.8776 31.6412L40.8992 15.5991H44.6946L38.6729 31.6412H34.8776ZM23.8749 26.1117C18.5713 32.3343 13.5684 40.6138 17.9875 44.4264C22.2319 48.0887 27.5279 45.9716 31.1747 44.5137L31.2713 44.4751C34.9207 43.0166 75.2579 25.5161 75.2579 25.5161C75.6472 25.3216 75.5744 25.0785 75.0877 25.1999C75.005 25.2206 67.1918 27.335 58.1789 29.7747L58.626 28.5301H54.1984L55.6532 24.6412H59.3023L60.4251 21.6515H56.776L58.027 18.273H61.8704L62.8903 15.5991H51.3097L47.3334 20.4118L49.1692 15.5991H45.3251L39.3516 31.6412H43.1469L45.6973 24.9327L45.872 31.6412L51.3278 31.6294C40.9822 34.4301 31.1741 37.0856 31.1741 37.0856C25.6265 38.6415 19.3011 35.2506 23.8749 26.1117ZM49.3939 22.2105L49.6372 30.5716L55.1323 15.9159L49.3939 22.2105Z" fill="#050505"/>
</svg>
