<svg width="200" height="61" viewBox="0 0 200 61" fill="none" xmlns="http://www.w3.org/2000/svg">
<rect x="0.5" y="0.5" width="199" height="60" rx="2.5" stroke="#050505"/>
<path fill-rule="evenodd" clip-rule="evenodd" d="M130.281 41.4844C126.577 41.4844 125.527 38.4185 125.527 35.243H128.843C128.843 36.3372 128.954 38.3637 130.446 38.3637C131.553 38.3637 132.105 37.3782 132.105 36.3928C132.105 32.8341 125.361 31.9041 125.361 26.046C125.361 23.0896 126.964 20.5164 130.17 20.5164C133.819 20.5164 134.815 23.5823 134.87 26.703H131.553C131.553 25.9365 131.718 23.6371 130.06 23.6371C129.066 23.6371 128.679 24.6225 128.679 25.4438C128.679 28.8382 135.422 30.0974 135.422 35.9008C135.422 39.0207 133.599 41.4844 130.281 41.4844ZM116.24 41.1011V20.8996H124.642V24.0203H119.942V29.1667H123.371V32.4516H119.942V37.9805H124.807V41.1011H116.24ZM114.25 41.1011H112.7L112.148 39.7324C111.484 40.7179 110.435 41.4844 109.218 41.4844C104.078 41.4844 103.911 34.805 103.911 31.1376C103.911 27.6885 104.465 20.5164 109.218 20.5164C113.863 20.5164 114.083 24.513 114.083 28.1265H110.766L110.822 26.8672C110.822 25.9913 110.655 23.6371 109.385 23.6371C107.615 23.6371 107.782 29.7689 107.782 31.1924C107.782 34.1496 107.615 38.3645 109.55 38.3645C111.153 38.3645 111.098 35.6825 111.098 34.5868H109.717V31.6859H114.25V41.1011ZM96.3384 41.1011H92.4687V20.8996H95.7303C102.364 20.8996 102.585 25.8263 102.585 30.9726C102.585 35.681 102.585 41.1011 96.3384 41.1011ZM90.3679 20.8996V41.1011H86.6087V20.8996H90.3679ZM81.1911 41.1011L79.4228 32.3961H78.5383V41.1011H74.8351V20.8996H79.0366C82.9064 20.8996 84.8965 22.7063 84.8965 26.6482C84.8965 28.455 84.399 30.5902 82.7405 31.5749L84.8965 41.1011H81.1911ZM68.7533 24.0195V29.4397H72.1255V32.6698H68.7533V41.1011H65.0494V20.8996H73.3417V24.0203L68.7533 24.0195ZM55.375 41.1011V20.8996H59.0789V37.9805H63.8332V41.1011H55.375ZM45.2583 41.1011V20.8996H53.7165V24.0203H48.9622V29.1667H52.445V32.4516H48.9622V37.9805H53.8824V41.1011H45.2583ZM38.735 41.4844C35.0318 41.4844 33.9815 38.4185 33.9815 35.243H37.2984C37.2984 36.119 37.409 38.3637 38.9016 38.3637C40.0073 38.3637 40.5601 37.3782 40.5601 36.3928C40.5601 32.8341 33.8164 31.9041 33.8164 26.046C33.8164 23.0896 35.4196 20.5164 38.626 20.5164C42.2746 20.5164 43.2697 23.5823 43.325 26.703H40.0633C40.0633 25.827 39.952 23.6371 38.5154 23.6371C37.5203 23.6371 37.1333 24.6225 37.1333 25.4438C37.1333 28.8382 43.8778 30.0974 43.8778 35.9008C43.877 39.0207 42.0527 41.4844 38.735 41.4844ZM96.1726 37.9805C99.1025 37.9805 98.6603 34.9153 98.6603 31.3566C98.6603 28.236 99.4342 24.0203 96.1726 24.0203V37.9805ZM79.1456 23.8553H78.5375V29.4944H79.3115C80.8041 29.4944 81.1911 27.852 81.1911 26.7022C81.1911 25.224 80.8601 23.8553 79.1456 23.8553ZM143.05 25.005C143.05 24.129 142.775 23.6363 142.167 23.6363C141.614 23.6363 141.392 24.129 141.392 24.786C141.392 25.5525 141.725 26.592 142.001 27.3585C142.554 26.7022 143.05 25.9358 143.05 25.005ZM142.167 23.1983C143.162 23.1983 143.493 24.129 143.493 25.005C143.493 26.319 142.664 27.2497 141.946 28.2352C141.503 27.195 140.95 25.9358 140.95 24.786C140.95 24.0751 141.172 23.1983 142.167 23.1983ZM148.634 41.1011C147.086 41.1011 145.87 40.6632 144.876 39.6229C143.935 40.7179 142.554 41.4844 141.005 41.4844C137.854 41.4844 136.417 38.6375 136.417 36.3928C136.417 34.0386 137.634 32.0129 139.402 30.0419C138.517 28.2899 137.854 26.8117 137.854 24.786C137.854 22.2128 139.624 20.5156 142.167 20.5156C144.819 20.5156 146.256 22.6508 146.256 24.7313C146.256 27.3045 144.985 28.3447 143.492 30.0967C143.824 31.1369 144.433 32.0676 144.93 33.0531C145.206 32.0676 145.371 31.1369 145.482 30.1514L148.357 30.7536C148.081 32.7246 147.638 34.64 146.809 36.4467C147.306 37.268 147.97 37.5965 148.91 37.8155V41.1004L148.634 41.1011ZM148.414 38.144C147.418 37.925 146.81 37.3235 146.313 36.5023C147.142 34.805 147.584 32.9983 147.861 31.0821L145.871 30.6989C145.712 31.8734 145.435 33.029 145.041 34.1481C144.323 32.7786 143.493 31.5201 142.942 30.0419C144.434 28.2899 145.762 27.2497 145.762 24.7313C145.762 22.8151 144.49 20.9536 142.168 20.9536C139.901 20.9536 138.298 22.4866 138.298 24.786C138.298 26.8665 139.072 28.3447 139.901 30.1514C138.298 31.9034 136.861 33.9291 136.861 36.3928C136.861 38.5287 138.187 41.0464 141.006 41.0464C142.664 41.0464 143.88 40.1704 144.821 38.9112C145.871 40.0609 146.811 40.6076 148.414 40.6076L148.414 38.144ZM140.122 35.2978C140.122 36.5023 140.674 37.9797 141.89 37.9797C142.499 37.9797 142.775 37.5417 142.995 37.1585L140.896 33.2721C140.398 33.8196 140.122 34.4766 140.122 35.2978ZM143.549 37.214C143.162 37.8162 142.608 38.4185 141.835 38.4185C140.398 38.4185 139.68 36.4475 139.68 35.2978C139.68 34.0933 140.122 33.3808 140.95 32.5056L143.549 37.214ZM155.821 28.1804C155.821 27.5782 155.931 24.0195 154.715 24.0195C153.223 24.0195 153.389 30.1514 153.389 30.8084C153.389 36.9395 153.941 37.9805 154.659 37.9805C156.152 37.9805 156.042 34.3131 156.042 33.3816H159.525V33.6006C159.579 36.8307 159.192 41.4844 154.605 41.4844C149.243 41.4844 149.187 34.2028 149.187 30.8084C149.187 27.633 149.684 20.5156 154.605 20.5156C159.193 20.5156 159.525 24.9503 159.47 28.1804V28.4542H155.821V28.1804ZM159.083 27.9615C159.028 24.6773 158.586 20.9544 154.605 20.9544C150.183 20.9544 149.685 27.4147 149.685 30.8084C149.685 34.4766 149.796 41.0464 154.605 41.0464C158.586 41.0464 159.083 37.1045 159.137 33.8196H156.484C156.484 35.024 156.484 38.4185 154.659 38.4185C153.389 38.4185 152.947 36.557 152.947 30.8084C152.947 29.3849 152.78 23.5823 154.715 23.5823C156.374 23.5823 156.264 27.0315 156.264 27.9615H159.083ZM165.385 37.0497C164.057 37.0497 163.506 35.9 162.51 35.9C162.012 35.9 161.569 36.2285 161.182 36.6665L160.63 35.8453C161.349 34.6408 162.399 33.6553 163.725 33.6553C164.997 33.6553 165.55 34.805 166.545 34.805C167.098 34.805 167.485 34.4766 167.872 34.0933L168.424 34.9145C167.706 36.0095 166.656 37.0497 165.385 37.0497ZM167.817 34.6955C167.485 35.024 167.043 35.243 166.545 35.243C165.441 35.243 164.887 34.1488 163.726 34.1488C162.676 34.1488 161.736 34.9153 161.129 35.8453L161.238 36.0095C161.57 35.681 162.012 35.462 162.51 35.462C163.615 35.462 164.168 36.6118 165.385 36.6118C166.434 36.6118 167.319 35.7913 167.928 34.9153L167.817 34.6955ZM164.611 20.5704C168.148 20.5704 168.757 24.0743 168.757 26.8117C168.757 29.5492 168.148 33.0531 164.611 33.0531C161.129 33.0531 160.464 29.5492 160.464 26.8117C160.464 24.0751 161.129 20.5704 164.611 20.5704ZM164.611 32.5611C167.817 32.5611 168.314 29.2762 168.314 26.8117C168.314 24.348 167.817 21.0084 164.611 21.0084C161.404 21.0084 160.962 24.348 160.962 26.8117C160.962 29.2754 161.405 32.5611 164.611 32.5611ZM164.611 30.5346C164.942 30.5346 165.273 30.1514 165.273 26.8117C165.273 25.662 165.273 23.0888 164.611 23.0888C164.002 23.0888 163.946 24.348 163.946 26.8117C163.946 29.9324 164.28 30.5346 164.611 30.5346ZM165.716 26.8117C165.716 30.4251 165.329 30.9726 164.611 30.9726C164.002 30.9726 163.506 30.4251 163.506 26.8117C163.506 25.1153 163.562 24.0743 163.727 23.4721C163.893 22.7056 164.28 22.5961 164.611 22.5961C165.385 22.5961 165.716 23.5268 165.716 26.8117Z" fill="#0078AB"/>
</svg>
