<svg width="91" height="61" viewBox="0 0 91 61" fill="none" xmlns="http://www.w3.org/2000/svg">
<rect x="0.5" y="0.5" width="89.8" height="60" rx="2.5" stroke="#050505"/>
<g clip-path="url(#clip0_1828_296)">
<path d="M21.4051 23.6748C16.8204 23.6748 13 25.6157 13 31.4722C13 36.1118 15.569 39.0333 21.5233 39.0333C28.5319 39.0333 28.9812 34.4258 28.9812 34.4258H25.5852C25.5852 34.4258 24.8572 36.9068 21.3162 36.9068C18.4322 36.9068 16.358 34.9624 16.358 32.2373H29.3365V30.5271C29.3365 27.831 27.6215 23.6748 21.4051 23.6748ZM21.2865 25.8604C24.0318 25.8604 25.9033 27.5389 25.9033 30.0545H16.433C16.433 27.3837 18.876 25.8604 21.2865 25.8604Z" fill="#E53238"/>
<path d="M29.3352 18.0038V36.0924C29.3352 37.1191 29.2617 38.5608 29.2617 38.5608H32.5007C32.5007 38.5608 32.6171 37.5254 32.6171 36.579C32.6171 36.579 34.2174 39.0777 38.5688 39.0777C43.1509 39.0777 46.2634 35.9026 46.2634 31.3541C46.2634 27.1224 43.4045 23.719 38.5761 23.719C34.0548 23.719 32.6498 26.1556 32.6498 26.1556V18.0038H29.3352ZM37.7401 25.9563C40.8518 25.9563 42.8306 28.2612 42.8306 31.3541C42.8306 34.6708 40.5452 36.8404 37.7625 36.8404C34.4413 36.8404 32.6498 34.2523 32.6498 31.3835C32.6498 28.7104 34.2573 25.9563 37.7401 25.9563Z" fill="#0064D2"/>
<path d="M54.3112 23.6748C47.414 23.6748 46.9717 27.4437 46.9717 28.0461H50.4046C50.4046 28.0461 50.5846 25.8457 54.0744 25.8457C56.342 25.8457 58.0993 26.8817 58.0993 28.8731V29.5819H54.0744C48.7311 29.5819 45.9062 31.142 45.9062 34.3079C45.9062 37.4233 48.5162 39.1184 52.0435 39.1184C56.8507 39.1184 58.3991 36.4675 58.3991 36.4675C58.3991 37.5219 58.4804 38.561 58.4804 38.561H61.5323C61.5323 38.561 61.4141 37.2731 61.4141 36.4491V29.3273C61.4141 24.6574 57.6399 23.6748 54.3112 23.6748ZM58.0993 31.7085V32.6536C58.0993 33.8864 57.337 36.9511 52.8498 36.9511C50.3927 36.9511 49.3392 35.7273 49.3392 34.3076C49.3392 31.7252 52.8869 31.7085 58.0993 31.7085Z" fill="#F5AF02"/>
<path d="M59.5664 24.266H63.4285L68.9712 35.3485L74.5012 24.266H77.9999L67.9271 43.9962H64.2571L67.1637 38.4961L59.5664 24.266Z" fill="#86B817"/>
</g>
<defs>
<clipPath id="clip0_1828_296">
<rect width="65" height="26" fill="white" transform="translate(13 18)"/>
</clipPath>
</defs>
</svg>
