<svg width="139" height="61" viewBox="0 0 139 61" fill="none" xmlns="http://www.w3.org/2000/svg">
<rect x="1.30078" y="0.5" width="137" height="60" rx="2.5" stroke="#050505"/>
<path fill-rule="evenodd" clip-rule="evenodd" d="M41.9777 11.8407H42.0263L42.0748 11.8527L42.1112 11.8648L42.1481 11.9011L42.1845 11.9379L42.2088 11.9862L42.2452 12.0472L42.2574 12.1081L42.2817 12.1932L42.2938 12.2662L42.3059 12.363L42.3181 12.4723L42.3302 12.5816V12.97L42.4885 31.0074L47.061 30.7279L47.1585 13.6137L47.8169 11.8407L49.8652 11.6583L50.341 12.4965L50.4265 30.4488L53.5113 30.2665L58.1809 30.0842L60.3269 30.2665L60.8876 30.7279V31.3837L60.5094 32.0279L59.0218 32.8656L58.9243 32.9754L58.6922 33.2423L58.3509 33.6312L57.9484 34.1163L57.5217 34.6149L57.1318 35.1L56.9487 35.3307L56.8026 35.5252L56.6807 35.708L56.5832 35.8414L56.5225 35.9866L56.437 36.1447L56.3516 36.3391L56.2544 36.5582L56.0714 37.008L55.8889 37.4815L55.7301 37.9182L55.5961 38.2954L55.499 38.5378L55.4742 38.635L55.4621 38.6596V38.7206L55.4378 38.7931L55.4257 38.8903V39.1327L55.4378 39.1815L55.45 39.2178L55.4742 39.2424L55.499 39.2541L55.5233 39.2666H55.5597L55.6082 39.242L55.6568 39.2173L55.718 39.1689L55.7787 39.108L55.8641 39.0224L55.9496 38.9252L56.0471 38.8164L56.1569 38.6703L56.2787 38.5131L56.4006 38.3303L56.5467 38.1112L56.7055 37.8805L56.8764 37.6136L57.2055 37.0796L57.4983 36.5819L57.7668 36.1442L58.0105 35.7317L58.2178 35.3675L58.4008 35.0396L58.5591 34.7479L58.6931 34.4926L58.8029 34.2735L58.9004 34.0917L58.9737 33.9456L59.0228 33.8247L59.0713 33.7275L59.0956 33.6665L59.1077 33.6303V33.6056L59.1932 33.5447L59.4248 33.3986L59.5709 33.314L59.7418 33.2168L59.8273 33.1805L59.9127 33.1316L60.0103 33.0833L60.1074 33.047L60.205 33.0223L60.2904 32.9861L60.388 32.9744L60.4735 32.9498H60.6444L60.7298 32.9614L60.8031 32.9861L60.8764 33.0223L60.9492 33.0586L60.9983 33.1195L61.0468 33.1805L61.0954 33.2651L61.1323 33.3623L61.1566 33.4842L61.1687 33.6061L61.193 33.8977L61.2173 34.1768L61.2537 34.4684L61.2906 34.76L61.3391 35.0517L61.3881 35.3307L61.4367 35.5987L61.4857 35.841L61.5712 36.2908L61.6566 36.6424L61.7052 36.8731L61.7295 36.9587V36.995L61.7542 37.1047L61.7906 37.2619L61.8518 37.4564L61.8761 37.5661L61.9125 37.675L61.9494 37.7838L61.9863 37.8936L62.0348 38.0024L62.0834 38.0996L62.1445 38.1968L62.1931 38.2824L62.2543 38.3671L62.315 38.428L62.3761 38.4764L62.4494 38.5136L62.5223 38.5252H62.5956L62.6684 38.5006L62.7539 38.4522L62.8393 38.3787L62.9248 38.2699L63.0102 38.1364L63.1078 37.9782L63.1932 37.7838L63.3029 37.5415L63.4005 37.2745L63.5103 36.9582L63.705 36.327L63.888 35.7554L64.0589 35.2331L64.205 34.7717L64.339 34.3591L64.4735 33.9949L64.5706 33.6786L64.6682 33.3986L64.7536 33.1689L64.8143 32.9744L64.8755 32.8163L64.9241 32.6944L64.9605 32.5972L64.9726 32.5363L64.9848 32.5H64.9969L64.7163 31.3828L63.2166 29.2451V29.1358L63.2287 29.0265L63.2408 28.8683L63.2651 28.7832L63.2773 28.6981L63.3015 28.6009L63.3258 28.5037L63.3627 28.3944L63.3991 28.2976L63.4477 28.1883L63.5089 28.0911L63.5574 27.9939L63.6307 27.8846L63.7036 27.7874L63.789 27.7023L63.8866 27.6051L63.9963 27.532L64.1182 27.459L64.2522 27.3985L64.3867 27.3381L64.5328 27.2897L64.7037 27.253L64.8867 27.2409L65.0697 27.2288H65.2771L65.5086 27.253L65.7402 27.2897L65.9718 27.3381L66.1913 27.3864L66.3743 27.459L66.5452 27.532L66.6913 27.6051L66.8132 27.6902L66.9229 27.7753L67.0205 27.8725L67.0933 27.9697L67.1545 28.079L67.2031 28.1762L67.2516 28.2855L67.2638 28.3948L67.288 28.5041V28.7107L67.2638 28.82L67.2516 28.9293L67.2273 29.0265L67.1905 29.1237L67.1662 29.2209L67.1298 29.306L67.0929 29.3911L67.0564 29.4762L66.9831 29.6097L66.9224 29.7069L66.8739 29.7679L66.8618 29.8042V29.8409L66.886 29.9502L66.8982 30.0353L66.9229 30.1204L66.9715 30.2297L67.02 30.3511L67.0564 30.4121L67.0929 30.4725L67.1298 30.5335L67.1783 30.5939L67.2273 30.6544L67.288 30.7274L67.3492 30.7884L67.4099 30.8609L67.4832 30.9218L67.5687 30.9944L67.642 31.0553L67.7395 31.1279L67.8371 31.1888L67.9342 31.2498L68.0561 31.3107L68.1658 31.3832L68.6659 31.6256L69.1534 31.8809L69.3854 32.0144L69.617 32.1479L69.8243 32.2698L70.0316 32.4033L70.1166 32.4758L70.2025 32.5368L70.2875 32.5977L70.3612 32.6702L70.4215 32.7312L70.4953 32.7921L70.5438 32.853L70.5928 32.9256L70.6414 32.9865L70.6778 33.0475L70.7026 33.12L70.7142 33.1809L70.7268 33.2419V33.3028L70.7142 33.3628L70.6904 33.4237L70.6657 33.4963L70.6409 33.5819L70.6162 33.6791L70.6045 33.801L70.5798 33.9228L70.5681 34.0679L70.5564 34.2131L70.5438 34.3712L70.5191 34.7117L70.5074 35.0633L70.4957 35.4405V35.8047L70.4831 36.1689V36.8494L70.4957 37.1284V37.5536L70.5074 37.6633V37.7233L70.5321 37.7722L70.5569 37.8447L70.6054 37.9303L70.6302 37.9787L70.6549 38.015L70.6914 38.0638L70.7278 38.1122L70.7642 38.1485L70.8006 38.1973L70.837 38.2219L70.8861 38.2457L70.9346 38.2703L70.9836 38.2829L71.0322 38.2945L71.0934 38.2829L71.1545 38.2703L71.2031 38.234L71.2643 38.1978L71.3254 38.1368L71.3983 38.0643L71.4594 37.9787L71.5323 37.8698L71.6051 37.748L71.6789 37.6029L71.7517 37.4447L71.8246 37.2619L71.9105 37.0559L72.0561 36.6308L72.2027 36.2173L72.3368 35.841L72.4582 35.4768L72.5805 35.1363L72.6897 34.821L72.7873 34.5293L72.8732 34.274L72.9461 34.0433L73.0189 33.8372L73.0801 33.6544L73.1291 33.5093L73.1655 33.3875L73.1903 33.3028L73.2019 33.254L73.2136 33.2423L73.2262 33.1814L73.25 33.0354L73.2626 32.9265L73.2743 32.8047L73.2869 32.6712V32.513L73.2743 32.4405L73.2626 32.3558L73.25 32.2702L73.2384 32.1856L73.2136 32.1L73.2019 32.0144L73.1655 31.9172L73.1291 31.8326L73.0927 31.7353L73.0437 31.6381L73.0072 31.5526L72.9461 31.4553L72.8732 31.3707L72.8121 31.2851L72.7392 31.1879L72.6533 31.1028L72.5683 31.0056L72.4824 30.9088L72.4096 30.7991L72.3484 30.6897L72.2756 30.5683L72.2266 30.447L72.1654 30.3135L72.1168 30.1795L72.0678 30.046L72.0314 29.9125L72.0076 29.7669L71.9702 29.6335L71.9464 29.4879L71.9217 29.3423L71.91 29.2088L71.8974 29.0632L71.8857 28.9297L71.874 28.7962V28.5418L71.8857 28.4204L71.8974 28.3111L71.91 28.2018L71.9338 28.1046L71.9464 28.0195L71.9702 27.9344L72.0076 27.8618L72.0314 27.8009L72.0678 27.7399L72.1052 27.7037L72.1416 27.6795L72.1901 27.6548L72.2266 27.6427L72.2877 27.6306L72.3489 27.5944L72.4217 27.5702L72.5805 27.4851L72.7509 27.3999L72.8485 27.3516L72.9461 27.3153L73.0553 27.2785L73.1655 27.2302L73.2748 27.206L73.385 27.1692L73.4942 27.1571L73.6035 27.133H73.8351L73.9443 27.145L74.0667 27.1692L74.1769 27.206L74.2861 27.2544L74.3954 27.3274L74.493 27.4125L74.5905 27.5097L74.6881 27.6311L74.7857 27.7651L74.8716 27.9227L74.9566 28.1051L75.0425 28.2995L75.1037 28.5302L75.1648 28.773L75.2377 29.0283L75.2862 29.259L75.3474 29.4776L75.4086 29.6842L75.4571 29.8665L75.5183 30.0367L75.5673 30.1944L75.6285 30.34L75.6887 30.4735L75.7377 30.5828L75.7989 30.6921L75.8475 30.7893L75.9086 30.8739L75.9698 30.9595L76.031 31.0205L76.0921 31.093L76.165 31.1418L76.2261 31.1902L76.299 31.2391L76.3601 31.2874L76.433 31.3121L76.5189 31.3484L76.5917 31.3846L76.6893 31.4093L76.8597 31.4577L77.0549 31.5186L77.2748 31.5795L77.5064 31.6651L77.6278 31.7014L77.738 31.7623L77.8472 31.8107L77.9565 31.8716L78.0541 31.9442L78.1517 32.0167L78.2376 32.0902L78.3352 32.1749L78.408 32.2605L78.4808 32.3451L78.5546 32.4423L78.6275 32.5395L78.6886 32.6493L78.7372 32.7465L78.7862 32.8554L78.8348 32.9772L78.8838 33.0861L78.9202 33.2196L78.944 33.3414L78.9688 33.4623L78.9935 33.5958L79.0183 33.7303V33.8637L79.0299 33.9972V34.2884L79.0183 34.4335L79.0056 34.5796L78.994 34.7247L78.9692 34.8828L78.9445 35.041L78.9081 35.1982L78.8716 35.3563L78.8469 35.5391L78.8105 35.7335L78.7867 35.9396L78.7619 36.1456L78.7503 36.3647L78.7376 36.5954L78.726 36.8261V37.0452L78.7134 37.2633L78.726 37.4824L78.7376 37.6884L78.7503 37.8954L78.7741 38.0899L78.7988 38.2717L78.8352 38.4299L78.8843 38.5633L78.9328 38.6968L78.9818 38.794L79.0547 38.8666L79.1275 38.9154L79.2134 38.9392L79.3101 38.9275L79.4077 38.8792L79.5179 38.8057L79.6402 38.6847L79.7616 38.5266L79.9082 38.3322L80.066 38.0768L80.2248 37.7852L80.4083 37.4457L80.5908 37.0568L80.7743 36.6433L80.9569 36.2428L81.1156 35.8666L81.2744 35.5024L81.5555 34.8219L81.7987 34.2024L82.0303 33.6317L82.2502 33.1209L82.3595 32.8786L82.4687 32.6595L82.5663 32.4405L82.6765 32.246L82.7858 32.0516L82.895 31.8698L83.0174 31.7L83.1266 31.5419L83.2489 31.3958L83.3829 31.2623L83.5296 31.1288L83.6752 31.0074L83.834 30.8981L83.9927 30.8014L84.1753 30.7042L84.3588 30.619L84.5656 30.546L84.7855 30.473L85.0055 30.4125L85.2487 30.3516L85.5051 30.3153L85.7483 30.2786H86.2115L86.4314 30.2907L86.6504 30.3149L86.8582 30.3632L87.065 30.4121L87.2602 30.4725L87.4553 30.5577L87.6388 30.6307L87.8214 30.7279L87.9918 30.813L88.1623 30.9223L88.3336 31.0195L88.4914 31.1414L88.638 31.2502L88.7968 31.3721L88.9425 31.4809L89.0891 31.6028L89.3692 31.8451L89.6256 32.0758L89.7596 32.1856L89.8819 32.2819L90.0033 32.3791L90.1256 32.4763L90.2349 32.5735L90.3572 32.647L90.4674 32.7195L90.5767 32.7679L90.6859 32.8288L90.8082 32.8651L90.9422 32.8898L91.0646 32.9144L91.1986 32.9261H91.4666L91.6123 32.9014L91.7589 32.8898L91.9046 32.8535L92.0512 32.8288L92.1968 32.7805L92.3434 32.7316L92.4891 32.6833L92.6479 32.6344L92.7935 32.5735L92.9402 32.5009L93.0858 32.44L93.2198 32.3674L93.3664 32.2949L93.5005 32.2223L93.6345 32.1488L93.7559 32.0642L93.8908 31.9916L94 31.906L94.1224 31.8335L94.2316 31.7479L94.3292 31.6753L94.4268 31.6028L94.5118 31.5293L94.5856 31.4446L94.6584 31.3837L94.7434 31.3112L94.8171 31.2502L94.9147 31.1893L95.024 31.1284L95.1463 31.0674L95.2677 31.0191L95.4017 30.9581L95.5483 30.9098L95.6823 30.8609L95.8411 30.8125L95.9998 30.7758L96.1576 30.7274L96.4752 30.6544L96.8043 30.5693L97.1218 30.5084L97.4384 30.4479L97.7311 30.387L97.9991 30.3386L98.2433 30.2776L98.4385 30.2414L98.5235 30.2172L98.5973 30.193L98.6458 30.1809L98.6948 30.1567L98.7313 30.0958L98.7551 29.9744L98.7924 29.7921L98.8041 29.5372L98.8288 29.2455L98.8527 28.8934V28.4925L98.8653 28.0674L98.8891 27.0837V24.8487L98.8774 23.658L98.8657 22.4799L98.8531 21.338L98.8415 20.2691L98.8167 19.3338L98.805 18.5324L98.7934 17.9249V17.4268V17.4389L98.805 17.451H98.8779L98.9269 17.4389L98.9871 17.4268L99.0609 17.4026L99.1337 17.3784L99.2187 17.3417L99.4022 17.2691L99.5857 17.184L99.7561 17.111L99.9149 17.05L100.024 17.0621L100.146 17.0863L100.268 17.0984L100.39 17.1105L100.499 17.1226L100.597 17.1347L100.695 17.1468H100.817L100.89 17.1226L100.926 17.1105H101.024L101.06 17.1347L101.085 17.1468L101.121 17.1714L101.146 17.1956L101.171 17.2203L101.195 17.2444L101.219 17.2812L101.244 17.3296L101.269 17.3784L101.317 17.4998L101.379 17.6333L101.428 17.8156L101.476 18.0221L101.501 18.1924L101.537 18.4719L101.562 18.8607L101.586 19.3342L101.611 19.9054L101.635 20.5491L101.659 21.2659L101.684 22.0552L101.72 23.792L101.757 25.6869L101.794 27.7032L101.831 29.7558L101.854 31.7967L101.879 33.7763L101.891 35.6103L101.903 37.2619L101.915 38.6475L101.903 39.7159V40.1164L101.891 40.4206V40.615L101.879 40.675L101.745 40.8094L101.55 41.0038L101.331 41.222L101.123 41.4164L98.8919 41.5136L98.5141 38.8173H98.4894L98.4166 38.7927L98.3675 38.781H98.1602L98.0753 38.8047L97.9893 38.841L97.9529 38.8536L97.9039 38.8782L97.8553 38.9145L97.8068 38.9382L97.7578 38.9754L97.7092 39.0117L97.6602 39.0601L97.599 39.1089L97.5504 39.1699L97.5014 39.2299L97.4403 39.3034L97.3917 39.3759L97.3305 39.4606L97.2694 39.5461L97.1965 39.6317L97.1106 39.728L96.9402 39.9224L96.7334 40.1294L96.5134 40.3355L96.2935 40.5415L96.0629 40.7485L95.8303 40.9429L95.3919 41.3192L95.0263 41.6108L94.7831 41.8169L94.6855 41.8904H94.6481L94.5267 41.902L94.4539 41.8904H94.368L94.2704 41.8778L94.1611 41.8662L94.0509 41.8415L93.9417 41.8169L93.8194 41.7806L93.698 41.7322L93.6489 41.7076L93.5878 41.6829L93.5266 41.6466L93.478 41.6104L93.429 41.5615L93.3805 41.5252L93.3319 41.4769L93.2829 41.4159L93.2465 41.3676L93.1974 41.2941L93.161 41.2341L93.1124 41.1485L93.076 41.0513L93.027 40.9541L92.9906 40.8569L92.942 40.748L92.8683 40.5173L92.7954 40.2741L92.7342 40.0187L92.6731 39.7643L92.6129 39.5089L92.5638 39.2666L92.5153 39.0233L92.4905 38.8043L92.4541 38.5982L92.4424 38.4285V38.1731L92.4662 37.9424L92.5027 37.6508L92.5274 37.2866L92.5638 36.8977L92.6002 36.4726L92.6493 36.0475L92.6857 35.6349L92.7342 35.2577L92.7469 35.1126L92.7707 34.9545L92.7954 34.8093L92.8202 34.6633L92.8449 34.5182L92.8813 34.3721L92.893 34.227L92.9056 34.081H92.6493L92.5153 34.0935L92.3813 34.1051L92.2473 34.1298L92.1123 34.1535L91.9909 34.1907L91.8569 34.2391L91.7346 34.2754L91.6006 34.3242L91.4783 34.3851L91.3569 34.4452L91.2345 34.5061L91.1033 34.5786L90.981 34.6512L90.8587 34.7238L90.8101 34.7721L90.7489 34.8456L90.7125 34.9303L90.6761 35.0275L90.6514 35.1493L90.6149 35.2712L90.6033 35.4163L90.5785 35.5624L90.5538 35.9019L90.529 36.2661L90.5174 36.6666L90.5057 37.0801L90.4931 37.2861L90.4693 37.4922L90.4567 37.6991L90.4319 37.9173L90.4081 38.1117L90.3717 38.3187L90.3343 38.5247L90.2979 38.7192L90.2494 38.901L90.1882 39.0717L90.127 39.2536L90.0411 39.4117L89.9683 39.5568L89.8707 39.7029L89.7614 39.8238L89.6522 39.9336L89.3958 40.1527L89.1516 40.3587L88.9084 40.5769L88.652 40.7838L88.518 40.8811L88.384 40.9783L88.2617 41.0629L88.1277 41.1601L87.982 41.2336L87.8349 41.3192L87.6893 41.3918L87.5436 41.4527L87.3848 41.5015L87.2382 41.5499L87.0678 41.5862L86.9091 41.6108L86.7386 41.6355L86.5682 41.6471H86.3847L86.1896 41.6225L86.007 41.5987L85.8001 41.5499L85.605 41.5015L85.3851 41.428L85.1782 41.3555L84.9466 41.2466L84.715 41.1378L84.4835 41.0043L84.2393 40.8699L84.0324 40.7248L83.8256 40.5787L83.6304 40.4452L83.4591 40.3117L83.2886 40.1666L83.143 40.0448L82.9963 39.9113L82.7409 39.6806L82.521 39.4615L82.4234 39.3643L82.3259 39.2796L82.2399 39.2071L82.155 39.1336L82.0691 39.0736L81.9841 39.0247L81.8982 38.9885L81.8253 38.9768L81.7394 38.9643H81.6666L81.5807 38.9889L81.4957 39.0136L81.4098 39.0745L81.3122 39.1345L81.2029 39.2201L81.1054 39.3289L80.983 39.4508L80.8616 39.5843L80.7276 39.7541L80.5927 39.9369L80.4349 40.1313L80.2883 40.301L80.1426 40.4708L79.9838 40.629L79.8372 40.7741L79.6915 40.9085L79.5328 41.0173L79.374 41.1262L79.2162 41.2234L79.0696 41.309L78.9109 41.3936L78.7652 41.4545L78.6064 41.5034L78.4608 41.5397L78.3142 41.5634L78.1685 41.5759L78.0219 41.5876L77.8762 41.5759L77.7296 41.5513L77.5956 41.515L77.4616 41.4787L77.3276 41.4178L77.2052 41.3452L77.0838 41.2597L76.9498 41.175L76.8396 41.0652L76.7304 40.9443L76.6211 40.8108L76.5109 40.6764L76.4134 40.5192L76.3284 40.3485L76.2425 40.1666L76.1575 39.9722L76.0963 39.7662L76.0352 39.5229L75.9861 39.2806L75.9497 39.0252L75.9133 38.7452L75.9016 38.4661L75.889 38.1745L75.8773 37.8712V37.2638L75.889 36.9484L75.9016 36.6322L75.9133 36.3159L75.938 36.0005L75.9628 35.6973L76.0113 35.0893L76.0725 34.5186L76.1215 33.9837L76.1701 33.5103L76.1818 33.3042L76.1944 33.1214L76.2061 32.9395L76.2177 32.7935V32.6716L76.2061 32.5744V32.4893L76.1813 32.4405L76.1575 32.4167L76.1211 32.3921L76.0963 32.3674L76.0473 32.3428L76.0109 32.3191L75.9745 32.2944L75.9259 32.2819L75.8769 32.2581L75.7676 32.2335L75.6574 32.2088L75.536 32.1972H75.3044L75.1821 32.2088L75.0729 32.2214L74.9753 32.2451L74.9262 32.2577L74.8898 32.2814L74.8534 32.294L74.817 32.3056L74.7806 32.3302L74.7558 32.3549L74.7311 32.3786L74.7063 32.4033L74.6947 32.4395L74.683 32.4884L74.6582 32.5493L74.6335 32.634L74.5971 32.8284L74.5485 33.0716L74.4874 33.3507L74.4262 33.667L74.365 34.0065L74.3039 34.3707L74.231 34.7233L74.1451 35.0996L74.0601 35.4647L73.9742 35.8163L73.9378 35.9861L73.8892 36.1442L73.8402 36.3024L73.7916 36.4605L73.7426 36.594L73.6941 36.7275L73.645 36.8494L73.5839 36.9582L73.4746 37.1889L73.3406 37.4559L73.1819 37.7722L73.0231 38.1001L72.8406 38.4526L72.6571 38.8168L72.4619 39.181L72.2667 39.5452L72.0715 39.8978L71.8773 40.2257L71.7797 40.3838L71.6821 40.529L71.5846 40.6741L71.4986 40.8085L71.4127 40.9294L71.3278 41.0392L71.2418 41.1364L71.169 41.2336L71.0831 41.2936L71.0103 41.3545L70.9374 41.3908L70.8763 41.4155L70.7306 41.4639L70.5471 41.5248L70.3272 41.5857L70.0718 41.6466L69.9373 41.6829L69.8033 41.7076L69.6693 41.7192L69.5231 41.7318L69.3891 41.7434H69.2309L69.0969 41.7318L68.9484 41.708L68.8022 41.6834L68.6678 41.635L68.5338 41.5862L68.3998 41.5136L68.2779 41.4411L68.156 41.3438L68.0463 41.222L67.9487 41.0885L67.8511 40.9434L67.7657 40.7727L67.6924 40.5783L67.6317 40.3722L67.5827 40.1299L67.5462 39.8745L67.522 39.5945L67.5098 39.2913L67.522 38.6601V38.0768L67.5341 37.5182L67.5462 36.9959L67.5584 36.5224L67.5705 36.061L67.5827 35.6475V35.2712L67.5948 34.9186V34.0563L67.5827 33.8256L67.5705 33.6312L67.5584 33.5456L67.5462 33.473L67.5341 33.3996L67.5098 33.3396L67.4855 33.2061L67.437 33.0726L67.3884 32.9391L67.3151 32.8047L67.2908 32.7447L67.2423 32.6837L67.2059 32.6228L67.169 32.574L67.1204 32.5256L67.0835 32.4768L67.035 32.4284L66.9864 32.3921L66.9379 32.3674L66.8893 32.3428L66.8407 32.3312L66.78 32.3195H66.7315L66.6703 32.3312L66.6096 32.3428L66.5489 32.3791L66.4878 32.4163L66.4266 32.4763L66.3659 32.5372L66.2926 32.6098L66.2319 32.6954L66.1586 32.8042L66.0979 32.9261L66.0246 33.0479L65.9513 33.2061L65.878 33.3758L65.8047 33.5819L65.7314 33.801L65.5731 34.287L65.4022 34.8456L65.2192 35.4405L65.024 36.0838L64.9143 36.4117L64.8045 36.7396L64.6948 37.0675L64.5729 37.3954L64.4389 37.7359L64.3171 38.0638L64.1831 38.3792L64.0369 38.6954L63.8787 38.9987L63.7325 39.3029L63.5616 39.582L63.3912 39.8489L63.2203 40.1043L63.0256 40.3466L62.8304 40.5657L62.6353 40.7717L62.4158 40.9424L62.1964 41.0997L61.9648 41.2341L61.7332 41.3304L61.5016 41.4039L61.2822 41.4401H61.0716L60.8885 41.4039L60.7177 41.355L60.5594 41.2578L60.4132 41.1606L60.2792 41.0271L60.1574 40.882L60.0476 40.7238L59.9501 40.541L59.8525 40.3466L59.767 40.1531L59.6937 39.9462L59.6204 39.7271L59.5593 39.521L59.4986 39.3029L59.4495 39.0838L59.401 38.8778L59.3519 38.6708L59.3034 38.4764L59.2665 38.2945L59.2179 38.1247L59.1694 37.9666L59.133 37.8331L59.0839 37.7112L59.0354 37.6257L58.9868 37.5531L58.9261 37.5047L58.865 37.4922L58.8038 37.5168L58.731 37.5657L58.5848 37.7108L58.4387 37.8559L58.3047 38.0019L58.1949 38.1471L58.0852 38.2931L57.9755 38.4382L57.89 38.5717L57.8046 38.7052L57.6585 38.9485L57.5361 39.1675L57.4385 39.3494L57.3657 39.4713L57.3171 39.5438L57.2317 39.6294L57.1341 39.7503L56.988 39.8838L56.8418 40.0299L56.6588 40.188L56.4636 40.3452L56.2685 40.5159L56.0611 40.6731L55.8538 40.8313L55.6465 40.9773L55.4392 41.1108L55.3416 41.1718L55.2441 41.2201L55.1465 41.269L55.061 41.3173L54.9756 41.3536L54.8901 41.3783L54.8168 41.4029L54.7435 41.4145H54.6702L54.5848 41.4029L54.5115 41.3904L54.426 41.3541L54.3284 41.3057L54.243 41.2569L54.1459 41.1843L54.0483 41.1117L53.9628 41.0262L53.8653 40.9415L53.7681 40.8317L53.6706 40.7229L53.5851 40.601L53.488 40.4792L53.4026 40.3341L53.3171 40.2006L53.2438 40.0424L53.1705 39.8843L53.0972 39.7262L53.0365 39.5564L52.9879 39.3866L52.9394 39.2047L52.903 39.0103L52.8782 38.8159L52.8539 38.6215L52.8418 38.4271V38.221L52.8661 38.0019L52.8904 37.7959L52.9268 37.5889L52.9753 37.3708L53.0365 37.1401L53.1948 36.7149L53.3288 36.3135L53.4633 35.9373L53.5973 35.5847L53.7191 35.2568L53.8288 34.9535L53.9386 34.6865L54.0362 34.4433L54.1337 34.2372L54.2066 34.0428L54.2799 33.8847L54.3284 33.7512L54.377 33.654L54.4134 33.5814L54.4377 33.533L54.4498 33.5205L54.462 33.4596L54.4863 33.2898L54.5105 33.1809L54.5227 33.0475V32.914L54.5105 32.8414L54.4984 32.7679L54.4863 32.707L54.4741 32.6344L54.4508 32.574L54.4265 32.5014L54.3896 32.4405L54.3532 32.3795L54.3046 32.3195L54.2435 32.2586L54.1828 32.2098L54.1221 32.1735L54.0366 32.1251L53.9512 32.0888L53.8536 32.0642L53.7439 32.0516L53.6341 32.04L53.5123 32.0284H53.2438L52.9753 32.04L52.7073 32.0516L52.451 32.0763L52.1951 32.1009L51.9514 32.1126L51.7077 32.1488L51.4882 32.1735L51.0979 32.2223L50.793 32.2707L50.5978 32.2954L50.525 32.307L50.4274 34.5419L50.3419 46.7249L49.6836 47.2835L48.0009 47.5625L47.0619 46.9193L46.8789 32.6842L42.4045 32.8661L42.3069 33.8019L42.4045 45.9839V46.13L42.4166 46.2751V46.4086L42.4045 46.5421V46.6639L42.3923 46.7728L42.368 46.8825L42.3438 46.9797L42.3195 47.0644L42.2826 47.15L42.2704 47.1862L42.2462 47.2109L42.2219 47.2472L42.1971 47.2718L42.1729 47.2956L42.1486 47.3202L42.1117 47.3318L42.0753 47.3444L42.051 47.369H42.0141L41.9777 47.3807H41.9291L38.7588 47.5625H38.6734L38.5879 47.5509L38.5146 47.5393L38.4413 47.5146L38.368 47.49L38.3073 47.4537L38.2587 47.4053L38.2102 47.3565L38.1738 47.3081L38.1252 47.2472L38.1005 47.1746L38.064 47.089L38.0398 47.0165L38.0276 46.9309L38.0155 46.8337V46.7249L37.9184 33.34L28.7734 34.4447V32.7684L38.1009 31.8456V16.3105L38.1495 12.776L38.1742 12.6425L38.1985 12.5086L38.2107 12.436L38.2349 12.3751L38.2471 12.3146L38.2714 12.2537L38.2956 12.1932L38.3325 12.1448L38.3689 12.0839L38.3932 12.0355L38.4301 11.9867L38.4787 11.9383L38.5277 11.89L38.5762 11.8416H41.9777V11.8407ZM98.1509 32.9391L98.0897 32.9507L98.0169 32.987L97.9441 33.0233L97.8703 33.0842L97.7853 33.1568L97.6877 33.2293L97.6018 33.3265L97.5042 33.4237L97.4066 33.5335L97.3091 33.6544L97.2115 33.7763L97.1022 33.9098L97.0046 34.0433L96.8954 34.1893L96.7852 34.3344L96.6759 34.4926L96.4691 34.8205L96.2613 35.1484L96.0545 35.4763L95.8719 35.8159L95.786 35.974L95.6884 36.1438L95.6156 36.3019L95.5418 36.4601L95.469 36.6052L95.4078 36.7512L95.3476 36.8963L95.2985 37.0424L95.25 37.1759L95.2009 37.2977L95.1645 37.4312L95.1281 37.5647L95.0917 37.6982L95.0669 37.8317L95.0422 37.9652L95.0058 38.0987L94.982 38.341L94.9446 38.5843L94.9329 38.6931V38.802L94.9213 38.9117V39.1178L94.9329 39.2034V39.3006L94.9446 39.3731L94.9572 39.4578L94.9689 39.5187L94.9815 39.5796L95.0053 39.6406L95.0301 39.6889L95.0548 39.7252L95.0796 39.7624L95.1034 39.7862L95.1398 39.8108H95.2009L95.2374 39.7992L95.2738 39.7745L95.3228 39.7499L95.3714 39.7252L95.4325 39.6889L95.5549 39.5917L95.6889 39.4829L95.8345 39.361L95.9812 39.2159L96.1399 39.0708L96.3103 38.9001L96.4691 38.7303L96.6148 38.5606L96.7614 38.3908L96.8954 38.208L96.9565 38.1233L97.0168 38.0378L97.0658 37.9652L97.1143 37.8796L97.1634 37.795L97.1998 37.7215L97.2362 37.6489L97.261 37.5764L97.3824 37.2368L97.5411 36.7991L97.7246 36.3131L97.9198 35.8033L98.1023 35.3289L98.2489 34.9163L98.3101 34.7465L98.3587 34.6005L98.3951 34.5033L98.4077 34.4424L98.4315 34.3089L98.4679 34.1028L98.4805 33.981L98.5053 33.8475L98.517 33.714L98.5286 33.5689V33.4354L98.517 33.3019L98.5053 33.2409L98.4927 33.1921L98.481 33.1437L98.4563 33.0949L98.4315 33.0465L98.4077 33.0102L98.3703 32.9856L98.3339 32.9493L98.2975 32.9377L98.2489 32.9251H98.2125L98.1509 32.9391ZM84.7015 34.4689L84.6898 34.5545L84.6651 34.6996L84.6534 34.9066L84.6408 35.1489L84.6291 35.4405L84.6175 35.7684L84.6049 36.108V37.1773L84.6296 37.5052L84.6413 37.8085L84.666 37.9536L84.6777 38.088L84.6903 38.1968L84.715 38.3187L84.7389 38.4033L84.7636 38.4889L84.7884 38.5499L84.8248 38.6099L84.9704 38.8168L85.1904 39.1085L85.2515 39.181L85.3127 39.2666L85.3855 39.3392L85.4584 39.4117L85.5312 39.4843L85.6171 39.5568L85.703 39.6303L85.8006 39.6903L85.8982 39.7513L85.9958 39.8122L86.105 39.8485L86.2274 39.8848L86.3366 39.921L86.459 39.9336L86.593 39.9452H86.727L86.861 39.9336L87.0066 39.9089L87.1654 39.8727L87.3242 39.8238L87.4829 39.7513L87.6533 39.6787L87.8349 39.5824L88.0184 39.4606L88.1889 39.3271L88.3593 39.2061L88.5059 39.0843L88.6399 38.9624L88.7622 38.8406L88.8715 38.7196L88.9691 38.5861L89.0541 38.4643L89.1278 38.3424L89.189 38.2336L89.2375 38.1117L89.2861 38.0029L89.3235 37.881L89.3473 37.7722L89.3599 37.6633L89.3716 37.5536L89.3832 37.4447V37.2503L89.3716 37.1531L89.3599 36.9703L89.3235 36.7884L89.2861 36.6424L89.2623 36.4973L89.2259 36.3754L89.2133 36.2666V36.1694L89.2259 36.0838V35.9991L89.2375 35.9135L89.2492 35.8289L89.2618 35.7554V35.6828L89.2492 35.6219L89.2375 35.5856L89.2259 35.5493L89.2133 35.5247L89.2016 35.501L89.1768 35.4647L89.1521 35.44L89.1283 35.4154L89.0919 35.3907L89.0545 35.367L89.006 35.3424L88.9574 35.3298L88.9084 35.3061L88.8355 35.2814L88.7744 35.2698L88.7015 35.2573L88.6156 35.2326L88.4331 35.2089L88.2253 35.1726L88.0063 35.1238L87.7747 35.0754L87.2985 34.9535L86.8105 34.8317L86.3474 34.7107L85.9454 34.601L85.6409 34.5284L85.4458 34.4675L85.3234 34.4312L85.2142 34.4065L85.0918 34.3703L84.9943 34.3586L84.9457 34.3461H84.8967L84.8481 34.3586L84.8117 34.3703L84.7743 34.3828L84.7505 34.4065L84.7258 34.4312L84.7015 34.4689ZM86.7872 31.7609L86.726 31.7846L86.6523 31.7972L86.6037 31.8209L86.5425 31.8581L86.4814 31.8944L86.445 31.9307L86.3964 31.9791L86.3474 32.0279L86.3236 32.0763L86.2862 32.1372L86.2498 32.1981L86.2381 32.2591L86.2134 32.32L86.2017 32.38L86.1891 32.4535V32.6712L86.2017 32.7321L86.2264 32.8047L86.2381 32.8782L86.2629 32.9507L86.2993 33.0233L86.3357 33.0958L86.3843 33.1568L86.4333 33.2293L86.4818 33.2903L86.543 33.3512L86.6042 33.3996L86.677 33.4605L86.7629 33.5093L86.8479 33.5577L87.0193 33.6549L87.1897 33.7284L87.3484 33.813L87.5062 33.874L87.6529 33.9349L87.7985 33.9958L87.9325 34.0321L88.0675 34.0684L88.116 34.08H88.1772L88.2384 34.0926H88.3845L88.4457 34.08H88.4821L88.5311 34.0563L88.5675 34.0437L88.604 34.0191L88.6404 33.9954L88.6768 33.9591L88.7132 33.9228L88.738 33.8856L88.7627 33.8493L88.7865 33.801L88.8113 33.7521L88.8229 33.6912L88.8355 33.6312L88.872 33.5093L88.8967 33.3875L88.9084 33.3149V32.9628L88.8967 32.8902L88.8841 32.8293L88.8724 32.7568L88.8477 32.6958L88.836 32.6233L88.8113 32.5623L88.7748 32.5014L88.7384 32.4405L88.702 32.3795L88.6656 32.3195L88.6166 32.2707L88.568 32.2223L88.5068 32.186L88.4578 32.1372L88.385 32.1009L88.3121 32.0763L88.2393 32.04L88.1655 32.0153L88.0077 31.9916L87.8737 31.9553L87.7761 31.9181L87.6785 31.8819L87.5319 31.8209L87.4227 31.7726L87.3736 31.7609L87.3251 31.7484L87.2639 31.7367H87.0323L86.9231 31.7484L86.7872 31.7609ZM108.819 29.0762L108.758 29.0883H108.673L108.576 29.1125L108.453 29.1493L108.319 29.1855L108.173 29.2223L108.002 29.2828L107.832 29.3432L107.648 29.4042L107.441 29.4767L107.235 29.5739L107.015 29.659L106.796 29.7558L106.563 29.8651L106.332 29.9865L106.1 30.0958L105.857 30.2293L105.625 30.3749L105.381 30.5084L105.149 30.6665L104.918 30.8242L104.686 30.9939L104.455 31.1637L104.248 31.3465L104.028 31.5284L103.833 31.7228L103.638 31.9298L103.467 32.1358L103.309 32.3549L103.151 32.573L103.017 32.8037L102.894 33.0344L102.797 33.2777L102.711 33.5084L102.65 33.7507L102.601 33.9814L102.576 34.2121L102.565 34.4312V34.6619L102.589 34.881L102.626 35.087L102.674 35.3061L102.735 35.5121L102.808 35.7182L102.894 35.9126L102.992 36.107L103.114 36.2898L103.236 36.4717L103.37 36.6545L103.504 36.8243L103.65 36.9824L103.809 37.1405L103.979 37.2987L104.15 37.4322L104.333 37.5657L104.516 37.6991L104.711 37.8201L104.906 37.9298L105.101 38.0387L105.308 38.1243L105.503 38.2089L105.711 38.2824L105.918 38.355L106.125 38.4033L106.234 38.428L106.332 38.4643L106.442 38.5006L106.539 38.5252L106.637 38.5736L106.735 38.6099L106.82 38.6471L106.917 38.6954L107.003 38.7438L107.101 38.7927L107.186 38.841L107.258 38.902L107.344 38.9508L107.417 39.0117L107.491 39.0727L107.576 39.1327L107.637 39.1936L107.71 39.2545L107.771 39.3271L107.832 39.388L107.893 39.4606L107.942 39.5215L107.991 39.5941L108.04 39.6796L108.089 39.7522L108.125 39.8248L108.161 39.8982L108.198 39.9708L108.223 40.0434L108.247 40.1289L108.259 40.2015L108.284 40.2871L108.295 40.3596V40.4443L108.307 40.5299V40.688L108.295 40.7727L108.284 40.8462L108.271 40.9308L108.26 41.0043L108.235 41.089L108.198 41.1615L108.162 41.2471L108.126 41.3197L108.089 41.4052L108.04 41.4778L107.979 41.5504L107.919 41.6359L107.858 41.7085L107.772 41.7811L107.699 41.8536L107.613 41.9392L107.515 42.0001L107.418 42.0848L107.308 42.1583L107.199 42.2308L107.077 42.2918L106.943 42.3643L106.809 42.4369L106.662 42.4978L106.517 42.5704L106.346 42.6313L106.176 42.6922L105.834 42.8257L105.493 42.9592L105.164 43.0927L104.835 43.2388L104.676 43.3113L104.53 43.3839L104.384 43.4448L104.238 43.5304L104.091 43.6029L103.97 43.6755L103.835 43.7611L103.701 43.8336L103.58 43.9183L103.469 44.0039L103.36 44.0885L103.251 44.1741L103.153 44.2597L103.067 44.3444L102.982 44.4416L102.909 44.5271L102.836 44.6127L102.775 44.709L102.726 44.8062L102.677 44.9034L102.641 45.0006L102.604 45.0979L102.58 45.1951V45.3048L102.568 45.3774V45.4746L102.58 45.5593V45.6565L102.592 45.7537L102.604 45.8509L102.629 45.9481L102.652 46.0579L102.677 46.1551L102.702 46.2523L102.738 46.3611L102.787 46.4583L102.836 46.5555L102.872 46.6528L102.933 46.7374L102.982 46.8346L103.043 46.9202L103.117 46.9928L103.189 47.0653L103.251 47.1388L103.335 47.1988L103.421 47.2477L103.506 47.296L103.604 47.3323L103.702 47.357L103.799 47.3695L103.909 47.3811L104.019 47.3695L104.128 47.357L104.262 47.3207L104.384 47.2844L104.518 47.2235L104.799 47.09L105.067 46.9565L105.324 46.823L105.579 46.6769L105.823 46.5435L106.055 46.41L106.274 46.2648L106.494 46.1314L106.714 45.9979L106.909 45.8518L107.104 45.7183L107.299 45.5848L107.64 45.3295L107.969 45.0741L108.25 44.8434L108.518 44.6253L108.75 44.4309L108.969 44.2611L109.14 44.115L109.298 44.0062L109.372 43.9574L109.445 43.9211L109.493 43.8974L109.554 43.8727L109.603 43.8481L109.652 43.7997L109.713 43.7262L109.774 43.6416L109.835 43.5197L109.897 43.3978L109.957 43.2527L110.006 43.0946L110.067 42.9248L110.128 42.742L110.177 42.5476L110.226 42.3415L110.274 42.1355L110.323 41.9164L110.36 41.6857L110.384 41.4666L110.408 41.2369L110.433 41.0062L110.445 40.7745V40.3257L110.433 40.1066L110.408 39.8875L110.384 39.6815L110.335 39.4871L110.286 39.3052L110.213 39.1224L110.14 38.9527L110.043 38.8066L109.945 38.6731L109.823 38.5522L109.689 38.455L109.396 38.2722L109.103 38.1024L108.811 37.9326L108.506 37.7629L108.202 37.6047L107.897 37.4466L107.593 37.2884L107.3 37.1433L107.007 36.9852L106.739 36.8517L106.47 36.7056L106.227 36.5722L106.007 36.4512L105.8 36.3168L105.703 36.2684L105.618 36.2075L105.532 36.1466L105.459 36.0856L105.385 36.0373L105.325 35.9647L105.276 35.9038L105.24 35.8312L105.215 35.7577L105.191 35.6731V35.4177L105.215 35.3321L105.24 35.2349L105.264 35.1377L105.313 35.0414L105.362 34.9442L105.423 34.8345L105.483 34.7372L105.557 34.6284L105.63 34.5312L105.716 34.4224L105.801 34.3126L105.898 34.2038L106.008 34.0949L106.118 33.9851L106.227 33.8763L106.349 33.7675L106.471 33.6577L106.606 33.5489L106.74 33.4516L106.874 33.3428L107.019 33.2456L107.166 33.1358L107.324 33.0386L107.47 32.954L107.616 32.8684L107.75 32.7958L107.884 32.7475L108.018 32.6986L108.14 32.6502L108.263 32.613L108.372 32.5893L108.592 32.553L108.787 32.5158L108.982 32.4921L109.165 32.4674L109.251 32.4428L109.337 32.4312L109.422 32.4065L109.508 32.3702L109.593 32.334L109.678 32.2851L109.751 32.2251L109.837 32.1642L109.922 32.0916L110.008 32.006L110.093 31.8972L110.179 31.7874L110.277 31.6665L110.362 31.5084L110.46 31.3502L110.558 31.1805L110.643 30.9977L110.715 30.8279L110.765 30.6577L110.813 30.5121L110.826 30.3665L110.837 30.2451L110.826 30.1237L110.813 30.0023L110.777 29.9051L110.728 29.8079L110.679 29.7107L110.618 29.6381L110.545 29.5651L110.46 29.4921L110.374 29.4316L110.288 29.3828L110.191 29.3344L110.093 29.286L109.996 29.2493L109.886 29.213L109.789 29.1888L109.679 29.1646L109.582 29.1404L109.473 29.1283L109.277 29.1037L109.106 29.0916L108.948 29.0795H108.819V29.0762Z" fill="#4C6234"/>
</svg>
