<svg width="92" height="61" viewBox="0 0 92 61" fill="none" xmlns="http://www.w3.org/2000/svg">
<rect x="1.30078" y="0.5" width="89.8" height="60" rx="2.5" stroke="#050505"/>
<g clip-path="url(#clip0_1828_300)">
<path d="M45.9719 51.9938C63.6713 51.9825 78.0019 42.8055 78 31.4711C78.0019 20.1657 63.6713 10.9886 45.9719 11.0063C28.3175 10.9886 13.9871 20.1657 14 31.4711C13.9871 42.8055 28.3175 51.9825 45.9719 51.9938Z" fill="#383B92"/>
<path d="M67.8663 27.9926C67.863 27.0771 67.1008 25.6277 66.6843 24.1663C66.5145 23.6953 66.4558 23.4537 66.7968 23.0648C67.1594 22.8196 67.3647 22.3667 67.1909 22.1372C67.0129 21.8836 66.749 21.944 66.4591 22.485C66.2562 22.807 65.0496 24.5441 63.9824 26.0794C63.0455 25.8594 61.9295 26.1495 61.2243 27.1809C60.8715 27.8711 60.7543 28.9941 61.0554 29.9637C60.0406 31.2031 58.8881 32.2913 58.2973 32.1087C57.6314 31.9384 58.0126 31.0326 58.241 30.3695C58.4031 29.9267 60.3335 24.8294 61.6183 21.4415L66.9094 20.8618L67.3597 19.6443L62.2938 19.5863C62.5715 18.9264 62.7441 18.4848 62.7441 18.4848H61.3369L60.8866 19.5863L41.7485 19.4704C42.416 20.0719 43.2368 21.8232 42.9868 23.5866L59.9859 21.6154L58.8602 24.3402C57.3183 23.63 55.4413 23.3817 53.0625 24.862C51.4951 23.8643 49.0939 24.9634 47.9402 25.9635C47.7894 25.4649 47.5037 25.0584 47.0396 24.804C46.2832 24.4822 45.2015 24.6023 43.8311 25.8475C43.1395 25.3441 42.4793 25.3403 41.6359 25.5577C42.2743 24.0675 42.8445 21.3686 40.9041 19.7603C40.8217 19.7132 40.746 19.6547 40.679 19.5863C40.9457 19.3709 41.2358 19.1629 41.5233 19.0066C42.1814 18.7433 41.8296 18.4414 41.467 18.5428C41.1286 18.7119 40.6417 18.9404 40.0598 19.2385C37.559 17.9503 33.2219 18.2737 30.3219 20.456C27.1125 22.8498 25.5294 25.7485 27.4512 27.6447C28.2266 28.2245 29.6924 28.4056 30.3782 26.8911C29.3993 26.5336 28.5784 25.0842 30.2093 22.7749C31.8619 20.4946 34.1486 19.5888 36.7388 19.4704C37.5869 19.4279 38.2494 19.6559 38.7652 20.0501C37.2714 20.999 35.6294 22.3611 34.5435 24.1083C34.0688 24.9226 33.5866 25.7495 33.1363 26.6012C32.2214 26.4321 31.3513 26.5913 30.7722 27.4708C30.4199 28.1001 30.9075 28.8163 31.7854 29.268C31.0225 30.879 30.282 32.6909 29.5339 34.8335C29.5259 34.8151 29.5339 34.8234 29.5339 34.8335C28.4025 33.8407 26.8194 34.8673 26.1566 35.7611C25.664 36.4901 25.0822 38.7576 26.5506 40.5149C25.596 41.5662 24.4398 42.2464 23.117 41.7904C24.0636 41.6309 24.5326 40.6647 24.0739 39.9352C23.5945 39.2154 22.3046 38.6115 21.4846 39.7613C20.6628 40.9063 21.425 42.718 23.511 42.8919C24.7008 42.9991 26.1512 42.4708 27.5638 41.3846C27.7526 41.5309 27.9612 41.6481 28.183 41.7324C31.5687 43.4426 35.3799 42.5368 37.3017 38.6598C39.0576 35.1905 38.279 31.514 36.9077 29.268C38.2595 28.8511 39.7151 28.0549 41.0167 26.6012C41.8472 26.3082 42.4957 26.2215 43.0994 26.4853C42.4596 27.2133 41.7346 28.1699 40.9604 29.4419C38.1357 33.9615 39.9097 36.9389 40.6227 37.2104C41.4778 37.5848 44.2336 37.7056 46.7581 32.0508C47.4449 30.4893 48.2097 28.382 48.1091 26.7751C49.191 25.971 50.8093 25.2864 52.0493 25.5577C48.9356 27.9573 47.6956 31.0367 47.8839 33.3842C47.9862 34.3842 48.2793 35.7732 49.7977 35.7031C51.1515 35.6594 53.5977 33.4131 54.3008 30.7753C54.6983 29.3646 55.3452 27.159 53.7379 25.4417C55.0487 24.5871 56.691 24.1453 58.5787 24.9779L56.2709 30.3695C55.374 32.8141 56.1363 33.418 57.1152 33.616C58.1298 33.7803 59.3025 33.3576 60.774 31.529C60.9939 31.2697 61.2006 30.9988 61.3932 30.7173C61.938 31.5597 62.8867 32.1553 64.4327 32.0508C63.9501 32.7232 63.2997 33.2598 62.4626 33.5001L43.6623 38.254C39.1911 39.3965 39.2497 42.2348 40.1724 43.7035C40.8328 42.9595 41.0674 42.9595 42.1425 42.602L62.1812 35.993C63.8759 35.4108 64.5209 34.8069 65.5585 31.9928C65.5956 31.9172 65.6099 31.8693 65.6148 31.8189C67.792 31.0618 67.863 28.7866 67.8663 27.9926Z" fill="white"/>
<path d="M46.5924 26.0215C45.4681 25.4466 43.0641 29.5531 42.5397 30.5435C42.0087 31.4855 40.2497 35.1693 41.3576 35.7031C42.4777 36.2563 44.5299 32.9349 45.1289 31.645C45.7026 30.3985 47.3443 26.6544 46.5924 26.0215ZM31.4508 27.4708C31.5575 27.288 32.0791 27.2107 32.7455 27.3549C32.5433 27.7027 32.347 28.0878 32.1263 28.5144C31.5866 28.2501 31.2609 27.8989 31.4508 27.4708ZM35.1659 28.6303C35.0111 28.6624 34.8288 28.6992 34.6593 28.7463C34.7076 28.582 34.7726 28.4344 34.8281 28.2825C34.9581 28.3917 35.0746 28.5013 35.1659 28.6303ZM27.2855 35.8771C27.4949 36.6266 27.6551 37.4486 28.355 37.6743C28.0777 38.2994 27.7123 38.9538 27.2855 39.5874C26.0488 38.2948 26.7798 36.2773 27.2855 35.8771ZM36.0665 30.3116C36.7316 33.2972 35.7935 35.8336 35.2784 36.9786C34.7381 38.1284 32.3749 41.4549 28.6927 40.3411C28.6913 40.3601 28.6948 40.3616 28.6927 40.3411C29.4458 39.5678 30.09 38.6896 30.6065 37.7322C31.9769 35.2741 33.1786 32.2032 34.209 29.7318C34.7556 29.7022 35.3004 29.6442 35.8413 29.5579C35.9321 29.7876 36.024 30.0509 36.0665 30.3116ZM39.9504 23.3547C39.8071 24.77 38.9787 27.2095 36.1228 28.3404C35.8826 28.0926 35.547 27.8283 35.1659 27.5868C35.2711 27.3512 35.3838 27.1192 35.5036 26.8911C36.431 25.1098 37.7298 22.6356 39.3875 20.8038C39.8903 21.5428 40.0423 22.5092 39.9504 23.3547ZM52.7279 30.9493C52.3869 31.6667 50.921 34.9277 49.6883 34.4857C48.1765 33.9857 50.1588 29.855 50.7578 28.7463C51.0076 28.2813 51.7886 27.0452 52.953 26.0215C53.9097 27.1836 53.0583 30.2838 52.7279 30.9493ZM61.9592 27.3549C62.379 26.8754 62.9072 26.7954 63.4227 26.8911C63.1554 27.2547 62.8927 27.6219 62.6346 27.9926C62.3121 28.4491 61.9741 28.8938 61.6215 29.326C61.4411 28.6999 61.4409 27.9624 61.9592 27.3549ZM62.3532 30.5435C62.1971 30.3909 62.0643 30.215 61.9592 30.0217C62.6182 29.1451 63.3544 28.1329 64.0419 27.123C64.3428 27.3112 64.597 27.5146 64.7736 27.7027C65.3452 28.2851 65.4329 29.5613 65.055 30.7754C64.0062 31.5087 62.8966 30.9447 62.3532 30.5435ZM66.0682 29.4999C66.0889 28.1871 65.568 27.3462 64.9988 26.7172C64.8723 26.5821 64.7316 26.4684 64.6047 26.3693C65.1329 25.5562 65.6285 24.7927 66.012 24.1663C66.386 25.7596 66.9468 27.7648 66.0682 29.4999Z" fill="#383B92"/>
</g>
<defs>
<clipPath id="clip0_1828_300">
<rect width="64" height="41" fill="white" transform="translate(14 11)"/>
</clipPath>
</defs>
</svg>
