<svg width="139" height="61" viewBox="0 0 139 61" fill="none" xmlns="http://www.w3.org/2000/svg">
<rect x="1.10156" y="0.5" width="137" height="60" rx="2.5" stroke="#050505"/>
<g clip-path="url(#clip0_1828_545)">
<path d="M54.3066 29.8177C55.1056 29.8177 55.6956 29.7037 56.1287 29.4301C56.7336 29.0425 56.9949 28.4117 56.9949 27.5985C56.9949 26.7245 56.6813 26.1545 56.1959 25.8125C55.7628 25.5086 55.1579 25.3718 54.2543 25.3718H53.2088V35.7835H51.4316V24.247H54.5455C55.7254 24.247 56.6962 24.3762 57.5251 24.9006C58.8095 25.7441 58.8394 27.0741 58.8394 27.3857C58.8394 28.8297 58.0628 29.9165 56.6887 30.3877C56.5618 30.4332 56.4274 30.4712 56.2855 30.5016L59.9297 35.7911H57.906L53.8884 29.8253H54.3066V29.8177ZM21.2699 29.8177C22.0689 29.8177 22.6589 29.7037 23.092 29.4301C23.6969 29.0425 23.9582 28.4117 23.9582 27.5985C23.9582 26.7245 23.6446 26.1545 23.1592 25.8125C22.7261 25.5086 22.1212 25.3718 21.2176 25.3718H20.1722V35.7835H18.4023V24.247H21.5163C22.6962 24.247 23.667 24.3762 24.5034 24.9006C25.7878 25.7441 25.8251 27.0741 25.8251 27.3857C25.8251 28.8297 25.041 29.9165 23.6745 30.3877C23.555 30.4332 23.4131 30.4712 23.2787 30.5016L26.9154 35.7835H24.8917L20.8741 29.8177H21.2699ZM28.2521 24.247H30.0369V35.7835H28.2521V24.247ZM41.5967 24.247L37.3253 35.7835H35.8915L31.5603 24.247H33.5168L36.8697 33.3516L40.1704 24.247H41.5967ZM44.7406 34.6512H49.9007V35.7835H42.9558V24.247H49.4974V25.3718H44.748V29.2021H49.3108V30.3345H44.748V34.6512H44.7406ZM67.3973 24.247H69.182V35.7835H67.3973V24.247ZM75.1337 24.0038C76.1045 24.0038 77.1276 24.2166 78.061 24.6118V26.1317C77.0081 25.5162 75.9029 25.1894 74.9993 25.1894C73.8642 25.1894 73.0353 25.7213 73.0353 26.6941C73.0353 29.2553 78.8227 28.8069 78.8227 32.66C78.8227 34.5068 77.4786 35.9887 74.7379 35.9887C73.5431 35.9887 72.3558 35.7151 71.3999 35.2212V33.5796C72.184 34.2788 73.6103 34.7956 74.8649 34.7956C76.1867 34.7956 77.2247 34.2104 77.2247 33.04C77.2247 30.2965 71.4298 30.8056 71.4298 26.9753C71.4298 24.9006 73.1324 24.0038 75.1337 24.0038ZM82.6536 24.247V34.6512H87.5225L87.0968 35.7835H80.8688V24.247H82.6536ZM98.5447 35.7835H96.5882L95.4307 32.736H90.7709L89.6283 35.7835H88.202L92.6229 24.247H94.0566L98.5447 35.7835ZM91.1965 31.596H95.005L93.0784 26.5193L91.1965 31.596ZM108.94 24.247V35.7835H107.745L101.248 27.1577V35.7835H99.8888V24.247H101.315L107.58 32.5536V24.247H108.94ZM118.722 34.484C117.714 35.3579 116.235 35.7835 114.466 35.7835H110.978V24.247H114.466C116.235 24.247 117.714 24.6574 118.722 25.5314C119.857 26.5345 120.402 28.1077 120.402 30.0077C120.402 31.9076 119.857 33.4808 118.722 34.484ZM116.885 26.0861C116.183 25.6302 115.272 25.4022 113.891 25.4022H112.77V34.6132H113.891C115.153 34.6132 116.153 34.4156 116.885 33.9292C118.005 33.1996 118.535 31.8164 118.535 29.9849C118.535 28.1609 118.005 26.8157 116.885 26.0861Z" fill="#050505"/>
</g>
<defs>
<clipPath id="clip0_1828_545">
<rect width="102" height="12" fill="white" transform="translate(18.4023 24)"/>
</clipPath>
</defs>
</svg>
