<svg width="91" height="61" viewBox="0 0 91 61" fill="none" xmlns="http://www.w3.org/2000/svg">
<rect x="0.5" y="0.5" width="89.8" height="60" rx="2.5" stroke="#050505"/>
<g clip-path="url(#clip0_1586_1148)">
<path d="M72.7885 43.2392L63.6119 18.0077L63.6057 17.991H63.4246L61.5349 23.176L58.0947 32.6154L58.0866 32.6079C56.8943 31.5572 55.2121 30.9004 53.0936 30.6559L52.4475 30.5892L53.0885 30.5072C56.5821 29.8802 58.9306 27.6766 58.9306 25.0218C58.9306 21.3812 55.5019 18.8401 50.5905 18.8401H40.3716V19.0245H43.3409V37.836L36.1295 18.0076L36.123 17.991H35.9419L34.0522 23.176L26.7637 43.1743L26.7188 43.1795C26.5943 43.1948 26.4711 43.207 26.3492 43.2162C26.1658 43.2306 25.9836 43.2392 25.8007 43.2392H18.4363L32.4351 19.0244L32.5391 18.8424H15.418V26.3331H15.5997C15.6319 22.6845 17.7596 19.0244 22.4606 19.0244H28.1319L14.0273 43.4206H33.0289V36.244H32.8473C32.8225 39.4241 31.0174 42.4446 27.092 43.1266L26.9672 43.1479L29.9567 34.9418H38.3312L41.3488 43.2392H38.3721V43.4206H50.0558V43.2392H47.0663V30.723H50.5157C54.0261 30.723 56.0394 32.2892 56.0394 35.0187V37.2388C56.0394 37.4835 56.056 37.8411 56.0744 38.1403V38.1512L54.2204 43.238H51.7983V43.4195H56.812V43.238H54.4159L56.1043 38.6059C56.1078 38.6507 56.1096 38.6777 56.1096 38.6777L56.1561 39.0951L56.201 39.3712C56.4827 41.0793 57.1369 42.3349 58.1447 43.1031L58.2896 43.2082C59.0553 43.7398 60.0068 44.0091 61.1192 44.0091C62.5927 44.0091 63.5752 43.6422 64.3864 42.7788L64.28 42.6788C63.5326 43.3678 62.9055 43.6468 62.1196 43.6468C60.7806 43.6468 60.0798 42.0249 60.0798 40.4253V37.3146C60.087 36.5428 59.9659 35.7751 59.7217 35.0428L59.6883 34.9464V34.9429H65.8138L68.8314 43.2403H65.8546V43.4218H75.9654V43.2403L72.7885 43.2392ZM30.0233 34.7603L34.1489 23.4413L38.2651 34.7603H30.0233ZM47.0681 30.541V19.0244H49.7011C53.2183 19.0244 55.0752 21.1125 55.0752 25.0609C55.0752 29.2601 54.0094 30.541 50.5157 30.541H47.0681ZM59.617 34.7603L59.5991 34.7156C59.3269 34.0535 58.9306 33.4494 58.4315 32.9357L58.259 32.7635L58.2407 32.7463L61.6291 23.4413L65.7454 34.7603H59.617Z" fill="#050505"/>
</g>
<defs>
<clipPath id="clip0_1586_1148">
<rect width="62" height="26" fill="white" transform="translate(14 18)"/>
</clipPath>
</defs>
</svg>
