<svg width="139" height="61" viewBox="0 0 139 61" fill="none" xmlns="http://www.w3.org/2000/svg">
<rect x="1.30078" y="0.5" width="137" height="60" rx="2.5" stroke="#050505"/>
<path fill-rule="evenodd" clip-rule="evenodd" d="M23.6094 38.4892H24.3321C26.567 38.4892 26.7709 37.3909 26.7709 35.0408V19.4066L29.051 21.6543V35.6679C29.051 38.1528 28.1934 40.1232 25.8682 40.5934L23.6094 38.4892ZM36.1942 27.1823C38.135 27.1823 39.5352 28.5482 39.5352 30.4296C39.5352 32.5338 38.2481 33.8328 36.1942 33.8328C34.3198 33.8328 33.0332 32.4664 33.0332 30.4064C33.0332 28.5482 34.3649 27.1823 36.1942 27.1823ZM36.216 35.7348C39.4678 35.7348 41.7027 33.5853 41.7027 30.4064C41.7027 27.4287 39.3998 25.2798 36.216 25.2798C33.1914 25.2798 30.8657 27.5182 30.8657 30.4064C30.8657 33.4963 33.1006 35.7348 36.216 35.7348ZM49.9396 29.287C49.9396 27.8537 49.2164 26.9364 48.0652 26.9364C47.2299 26.9364 46.5529 27.3171 45.6497 28.347V35.5331H43.5278V20.6444H45.6497V26.6683C46.3952 25.7721 47.5012 25.2345 48.5845 25.2345C50.5937 25.2345 52.0619 26.6009 52.0619 29.3544V35.5336H49.9396V29.287ZM60.9296 29.3317C60.9296 27.8763 60.2069 26.9806 59.0552 26.9806C58.2205 26.9806 57.5429 27.3613 56.6403 28.3692V35.5326H54.5179V25.449H56.6403V26.7126C57.3852 25.8164 58.4913 25.2793 59.5756 25.2793C61.5164 25.2793 63.0509 26.5999 63.0509 29.3533V35.5326H60.9296V29.3317ZM69.3543 19.4066L71.3967 21.4758V33.4521H75.9699L77.9558 35.5331H69.3543V19.4066ZM81.6916 27.1154C83.0228 27.1154 83.8591 28.0111 83.9494 29.2762H79.0728C79.3664 27.9437 80.2457 27.1154 81.6916 27.1154ZM85.857 34.4918C85.5177 34.2017 84.5356 33.2268 84.5356 33.2268C83.7683 33.5632 83.0462 33.7201 82.3002 33.7201C80.4491 33.7201 79.3436 32.7576 79.0271 31.0022H86.0479C86.0479 27.1154 84.3312 25.2793 81.6454 25.2793C78.8461 25.2793 76.9042 27.3387 76.9042 30.3838C76.9042 33.1599 78.6655 35.7343 81.8255 35.7343C83.5193 35.7348 84.6207 35.3592 85.857 34.4918ZM97.6242 35.7348L94.6199 28.5508L91.6379 35.7348H91.0044L86.45 25.4408H88.7124L91.3266 31.4776L93.8292 25.4408H95.409L97.923 31.4776L100.523 25.4346H102.776L98.2566 35.7348H97.6242ZM103.81 21.7829C103.81 21.111 104.352 20.5513 105.007 20.5513C105.662 20.5513 106.204 21.111 106.204 21.7829C106.204 22.477 105.662 23.0372 105.007 23.0372C104.352 23.0372 103.81 22.477 103.81 21.7829ZM103.991 25.4362H106.115V35.5331H103.991V25.4362ZM107.922 34.7943V32.5106C109.3 33.4732 110.52 33.8812 111.289 33.8812C112.027 33.8812 112.601 33.5956 112.627 32.9376C112.64 32.5919 112.369 32.2199 111.94 31.9288C111.512 31.6154 110.925 31.3237 110.337 30.9662C109.186 30.2948 107.99 29.4212 107.99 28.0337C107.99 26.3092 109.22 25.2793 111.331 25.2793C112.278 25.2793 113.228 25.5478 114.311 26.1297V28.2344C113.114 27.4287 111.993 27.1097 111.271 27.1097C110.481 27.1097 110.111 27.4555 110.135 27.9658C110.158 28.4777 110.755 28.8744 112.575 29.8966C114.286 30.8587 114.786 31.7039 114.786 32.757C114.786 34.5474 113.363 35.7343 111.444 35.7343C110.203 35.7348 109.254 35.4889 107.922 34.7943Z" fill="black"/>
</svg>
