<svg width="92" height="61" viewBox="0 0 92 61" fill="none" xmlns="http://www.w3.org/2000/svg">
<rect x="1.30078" y="0.5" width="89.8" height="60" rx="2.5" stroke="#050505"/>
<path fill-rule="evenodd" clip-rule="evenodd" d="M58.1502 15.7617C58.128 14.8974 57.242 14.7646 55.5154 15.6289C55.2319 15.774 54.9287 15.8701 54.6312 15.9644C53.9292 16.1868 53.2581 16.3994 52.9471 17.2238C51.0657 22.1219 46.7037 35.7519 44.6673 43.4868C44.1802 45.3043 46.0178 45.6367 46.5711 43.7304C47.8996 39.1432 50.9547 28.9482 52.748 23.718C52.6855 25.4136 52.4827 27.4536 52.2734 29.5583C51.8892 33.4229 51.4832 37.5055 51.8848 40.0741C51.9924 40.83 52.4616 41.3227 52.9521 41.8378C53.267 42.1684 53.5906 42.5083 53.8331 42.9329C54.2537 43.6867 54.9399 43.753 55.3166 42.7333C57.0871 37.9021 60.5411 29.3249 63.8843 22.4992C63.2423 25.5134 60.7182 38.3014 60.0095 43.3543C59.9348 43.9403 60.2949 44.2037 60.8293 44.5946C61.2445 44.8983 61.7648 45.2789 62.2682 45.9475C62.4896 46.302 63.4637 46.6567 63.6409 45.7701C63.6983 45.4783 63.7858 45.0315 63.8983 44.4564C64.9571 39.0468 68.2356 22.2953 69.5962 16.6257C70.0167 14.8971 69.9063 14.0328 66.7845 15.4292C66.5963 15.5182 66.4168 15.5651 66.2395 15.6115C65.6658 15.7615 65.1155 15.9054 64.3714 17.4461C61.2938 23.7622 58.9249 28.8596 56.0687 36.262C56.1285 32.1593 56.633 28.6332 57.1588 24.9592C57.4112 23.1952 57.6684 21.3972 57.8837 19.4849C57.8973 19.3526 57.9118 19.214 57.9268 19.0706C58.035 18.0373 58.1693 16.7542 58.1502 15.7617ZM42.7792 15.1152C43.4919 14.8511 44.1612 14.603 44.4898 14.676C45.0214 14.8088 44.9766 15.4738 44.6448 16.3824C44.0255 18.0595 43.2269 20.0591 42.3175 22.3358C41.7968 23.6395 41.2399 25.034 40.6595 26.5109C41.6778 26.4 42.2094 26.3555 42.2094 26.3555C43.6261 26.2004 43.914 26.8876 43.5157 27.6631C43.387 27.8807 43.2554 27.9664 43.0761 28.0832C42.7622 28.2877 42.3022 28.5874 41.4564 29.8573C40.7282 30.9297 39.5431 31.2341 38.8453 31.4134C38.8221 31.4193 38.7995 31.4252 38.7774 31.4309C36.9849 36.181 35.2946 40.9692 33.7076 45.7921C33.4417 46.5456 32.7112 46.3908 32.5118 46.0803C32.0945 45.4883 31.7257 45.1942 31.3833 44.921C31.0717 44.6725 30.7819 44.4413 30.497 44.0189C30.4814 43.9771 30.4595 43.9352 30.4365 43.891C30.362 43.7481 30.2747 43.5807 30.3421 43.31C30.8294 41.4262 32.025 37.5919 33.8625 32.4946C31.5587 33.0219 29.0808 33.549 28.0237 33.7739L27.9955 33.7799C26.7332 37.1269 25.5156 40.4291 24.3643 43.687C23.6558 45.7259 21.774 45.3268 22.4383 43.3988C23.4564 40.3626 24.608 37.1932 25.8032 34.0904C24.78 33.9863 24.2867 33.4056 23.7694 32.7967C23.6266 32.6286 23.482 32.4584 23.324 32.2955C23.1917 32.1528 22.9987 32.0851 22.7986 32.0148C22.5631 31.9322 22.3179 31.8461 22.1504 31.6305C21.6191 30.8764 21.6636 30.5443 22.9034 30.2121C24.5857 29.7022 26.2464 29.2812 27.7741 28.9045C29.7363 23.8256 31.5217 19.4177 32.5542 16.8686C32.6166 16.7144 32.6763 16.567 32.7332 16.4266C33.5087 14.5206 35.5009 14.698 34.7482 16.6037C33.2208 20.3941 31.6486 24.3609 30.0767 28.35C32.0046 27.9377 33.9385 27.5535 35.8776 27.1975C37.1616 23.8736 38.6667 20.1941 40.3499 16.3158C40.4603 16.0502 40.7705 15.718 41.1023 15.6292C41.5811 15.5592 42.1947 15.3318 42.7792 15.1152ZM43.5613 38.9884C43.373 39.2671 43.1641 39.5691 42.9338 39.8615C43.0388 40.1606 43.1324 40.4162 43.2072 40.6062C43.6723 41.7364 42.4987 42.0246 42.1224 41.0938C42.091 41.0143 42.0587 40.9307 42.0251 40.8427C41.3263 41.4596 40.5196 41.8464 39.6648 41.581C38.2469 41.1415 37.8714 39.1435 39.2219 37.5916C39.6236 37.1155 40.04 36.6519 40.4705 36.2017C40.3715 35.867 40.2916 35.5911 40.2403 35.398C40.0634 34.7553 39.9084 34.0241 40.5279 33.2926C41.7018 31.8961 44.4173 33.1326 43.0297 35.2869C42.701 35.7976 42.3158 36.296 41.92 36.7816C42.0594 37.2256 42.1999 37.6693 42.3415 38.1126C42.4687 37.9841 42.5969 37.8604 42.7201 37.747C43.5835 37.0155 44.4002 37.7459 43.5613 38.9884ZM41.3733 39.0146C41.2501 38.6507 41.1265 38.2706 41.0118 37.9087C40.9993 37.9256 40.9867 37.9426 40.9742 37.9596C40.8699 38.1004 40.7642 38.2431 40.6609 38.39C39.9524 39.3428 40.3556 39.683 40.9045 39.3651C41.0623 39.2737 41.219 39.1435 41.3733 39.0146ZM41.3804 34.9526C41.3991 35.0247 41.421 35.1091 41.455 35.1949C41.5473 35.1061 41.6322 35.0077 41.7197 34.9063C41.7502 34.871 41.781 34.8353 41.8125 34.7996C42.6728 33.8219 40.9722 33.4251 41.3694 34.9104C41.373 34.9239 41.3766 34.938 41.3804 34.9526Z" fill="#CC061D"/>
</svg>
