<svg width="201" height="61" viewBox="0 0 201 61" fill="none" xmlns="http://www.w3.org/2000/svg">
<rect x="1.10156" y="0.5" width="199" height="60" rx="2.5" stroke="#050505"/>
<g clip-path="url(#clip0_1828_328)">
<path d="M33.3984 35.1755V33.7156H38.5906V35.5725C38.5866 35.8165 38.6357 36.0584 38.7346 36.2822C38.8334 36.5059 38.9798 36.7061 39.1638 36.8694C39.3478 37.0327 39.5652 37.1553 39.8014 37.229C40.0375 37.3026 40.2869 37.3255 40.5328 37.2962C40.9529 37.3523 41.379 37.2509 41.7267 37.0121C42.0745 36.7732 42.3183 36.4143 42.41 36.0066C42.5491 35.5396 42.5372 35.0415 42.3762 34.5813C41.3713 32.0918 34.5047 30.9649 33.6324 27.0846C33.4548 26.2322 33.4438 25.3543 33.5999 24.4978C34.1355 21.3821 36.9149 20.2551 40.3651 20.2551C43.112 20.2551 46.8976 20.8852 46.8976 25.0625V26.4225H42.0746V25.229C42.0892 24.9938 42.0519 24.7582 41.9653 24.5385C41.8786 24.3188 41.7448 24.1202 41.5728 23.9563C41.4009 23.7924 41.195 23.6671 40.9692 23.589C40.7435 23.511 40.5032 23.482 40.265 23.504C39.8583 23.4599 39.4496 23.5686 39.1206 23.8084C38.7917 24.0482 38.5666 24.4014 38.4905 24.7974C38.4363 25.1282 38.4478 25.4661 38.5243 25.7925C39.0924 28.0131 46.4296 29.2079 47.2343 33.22C47.4354 34.2598 47.4465 35.3267 47.2668 36.3703C46.7975 39.5514 43.9167 40.7449 40.434 40.7449C36.7784 40.7449 33.3984 39.4515 33.3984 35.1755ZM96.308 35.1102V33.6503H101.434V35.4739C101.426 35.7157 101.471 35.9563 101.566 36.1793C101.661 36.4024 101.804 36.6026 101.985 36.7662C102.165 36.9299 102.38 37.0532 102.614 37.1276C102.847 37.2021 103.095 37.2259 103.338 37.1976C103.755 37.2587 104.179 37.163 104.527 36.9294C104.875 36.6958 105.12 36.3416 105.214 35.9375C105.353 35.4813 105.342 34.9935 105.182 34.5442C104.209 32.0918 97.4091 30.9585 96.5394 27.0846C96.3615 26.2435 96.3501 25.3765 96.5056 24.5311C97.0451 21.4487 99.8284 20.3217 103.208 20.3217C105.923 20.3217 109.673 20.9851 109.673 25.0958V26.4225H104.884V25.2623C104.899 25.03 104.864 24.7971 104.78 24.5795C104.696 24.3619 104.565 24.1647 104.397 24.0012C104.228 23.8377 104.026 23.7118 103.804 23.632C103.582 23.5521 103.345 23.5203 103.11 23.5386C102.71 23.4864 102.306 23.5885 101.981 23.8234C101.657 24.0582 101.437 24.4078 101.368 24.7987C101.313 25.1293 101.324 25.4673 101.4 25.7938C101.936 28.0143 109.2 29.1759 110.01 33.1534C110.211 34.1821 110.222 35.2379 110.043 36.2704C109.573 39.454 106.726 40.6143 103.283 40.6143C99.6594 40.6168 96.308 39.3196 96.308 35.1102ZM114.665 35.8081C114.619 35.3893 114.608 34.9674 114.633 34.5467V20.8186H119.523V34.9757C119.517 35.2195 119.528 35.4634 119.556 35.7057C119.665 36.1049 119.905 36.4575 120.238 36.709C120.571 36.9605 120.979 37.0968 121.399 37.0968C121.818 37.0968 122.226 36.9605 122.559 36.709C122.893 36.4575 123.132 36.1049 123.241 35.7057C123.27 35.4635 123.282 35.2195 123.275 34.9757V20.8186H128.168V34.5442C128.168 34.9091 128.135 35.6058 128.135 35.8056C127.801 39.3913 124.952 40.5438 121.402 40.5438C117.852 40.5438 115.001 39.3849 114.665 35.8056V35.8081ZM154.932 35.6084C154.882 35.188 154.859 34.765 154.864 34.3418V26.2894C154.864 25.9577 154.896 25.3609 154.93 25.028C155.366 21.4487 158.28 20.3217 161.731 20.3217C165.148 20.3217 168.162 21.4487 168.498 25.0292C168.538 25.4485 168.549 25.8699 168.531 26.2906V26.9143H163.64V25.8591C163.641 25.6143 163.619 25.3699 163.574 25.1291C163.445 24.7249 163.189 24.3717 162.843 24.1209C162.496 23.8701 162.077 23.7348 161.647 23.7348C161.217 23.7348 160.799 23.8701 160.452 24.1209C160.105 24.3717 159.849 24.7249 159.721 25.1291C159.664 25.4245 159.642 25.7252 159.654 26.0256V34.7772C159.649 35.021 159.66 35.2649 159.688 35.5072C159.804 35.9413 160.074 36.3204 160.448 36.5763C160.822 36.8321 161.277 36.948 161.731 36.9031C162.176 36.9498 162.623 36.8338 162.987 36.5772C163.352 36.3206 163.607 35.9412 163.707 35.511C163.752 35.2704 163.763 35.0248 163.74 34.7811V31.9919H161.764V29.2066H168.598V34.3418C168.603 34.7629 168.581 35.1838 168.531 35.602C168.197 39.0826 165.151 40.3095 161.731 40.3095C158.31 40.3095 155.266 39.0865 154.932 35.6058V35.6084ZM86.7621 39.9483L86.6321 22.2439L83.2781 39.9483H78.3875L75.0699 22.2439L74.9399 39.9483H70.113L70.5147 20.8519H78.3875L80.8328 35.7723L83.2781 20.8519H91.1496L91.5851 39.9483H86.7621ZM61.0351 39.9483L58.4221 22.2439L55.7415 39.9483H50.5168L54.0684 20.8519H62.6783L66.2299 39.9483H61.0351ZM142.905 39.7498L138.048 23.869L138.316 39.7486H133.558V20.8519H140.726L145.276 36.2359L145.015 20.8519H149.806V39.7511L142.905 39.7498Z" fill="#122A9C"/>
</g>
<defs>
<clipPath id="clip0_1828_328">
<rect width="156" height="41" fill="white" transform="translate(23 10)"/>
</clipPath>
</defs>
</svg>
