<svg width="91" height="61" viewBox="0 0 91 61" fill="none" xmlns="http://www.w3.org/2000/svg">
<rect x="0.5" y="0.5" width="89.8" height="60" rx="2.5" stroke="#050505"/>
<path fill-rule="evenodd" clip-rule="evenodd" d="M62.1979 48.3522H62.6633V52.2866L59.8184 49.3088V52.1403H59.34V48.1657L62.1979 51.1569V48.3522ZM48.8264 48.3522V50.7579C48.8264 51.1832 48.7066 51.5287 48.4671 51.7949C48.2149 52.0873 47.8693 52.2202 47.4305 52.2202C47.0185 52.2202 46.6732 52.0873 46.4202 51.7949C46.168 51.5287 46.0479 51.1832 46.0479 50.7579V48.3522H46.5268V50.5983C46.5268 51.3827 46.8192 51.7817 47.4305 51.7817C48.0551 51.7817 48.361 51.3827 48.361 50.5983V48.3522H48.8264ZM50.2885 48.3522H52.5613V48.7909H51.6576V52.1405H51.2056V48.7909H50.2885V48.3522ZM49.4644 48.3522H49.9429V52.1405H49.4644V48.3522ZM45.2773 48.3522H45.7957L44.1474 52.353L42.4993 48.3522H43.0177L44.1476 51.1569L45.2773 48.3522ZM58.4627 50.2527C58.4627 50.678 58.3164 51.0371 58.011 51.3427C57.7318 51.6351 57.373 51.7814 56.9605 51.7814C56.5485 51.7814 56.1896 51.6351 55.8842 51.3427C55.5783 51.0368 55.4322 50.678 55.4322 50.2527C55.4322 49.8275 55.5651 49.4684 55.8575 49.176C56.1499 48.8706 56.5222 48.7242 56.9605 48.7242C57.3992 48.7242 57.7581 48.8706 58.0372 49.176C58.3166 49.4684 58.4627 49.8272 58.4627 50.2527ZM58.3566 48.8571C57.958 48.4716 57.4926 48.2723 56.9607 48.2723C56.4159 48.2723 55.9509 48.4716 55.5519 48.8571C55.1665 49.2424 54.967 49.7079 54.967 50.2525C54.967 50.8106 55.1668 51.2761 55.5519 51.6614C55.9374 52.0337 56.4026 52.2199 56.9607 52.2199C57.5061 52.2199 57.9843 52.0337 58.3566 51.6614C58.7421 51.2761 58.9414 50.8106 58.9414 50.2525C58.9416 49.7079 58.7424 49.2424 58.3566 48.8571ZM54.8609 48.3522V48.7909H53.9702V52.1405H53.4917V48.7909H52.588V48.3522H54.8609ZM32.8757 49.176C33.1549 49.4684 33.2878 49.8275 33.2878 50.2527C33.2878 50.678 33.1414 51.0371 32.8493 51.3427C32.5568 51.6351 32.1978 51.7814 31.7858 51.7814C31.3737 51.7814 31.0149 51.6351 30.7092 51.3427C30.4301 51.0368 30.2707 50.678 30.2707 50.2527C30.2707 49.8275 30.4168 49.4684 30.696 49.176C30.9884 48.8706 31.3475 48.7242 31.786 48.7242C32.2245 48.7242 32.5968 48.8706 32.8757 49.176ZM33.1816 48.8571C32.7828 48.4716 32.3176 48.2723 31.786 48.2723C31.2409 48.2723 30.7627 48.4716 30.3903 48.8571C29.9916 49.2424 29.7923 49.7079 29.7923 50.2525C29.7923 50.8106 29.9918 51.2761 30.3903 51.6614C30.7627 52.0337 31.2279 52.2199 31.786 52.2199C32.3443 52.2199 32.8095 52.0337 33.1816 51.6614C33.5804 51.2761 33.7664 50.8106 33.7664 50.2525C33.7664 49.7079 33.5804 49.2424 33.1816 48.8571ZM34.6304 50.5981C34.6304 51.3824 34.9361 51.7814 35.5476 51.7814C36.1459 51.7814 36.4648 51.3824 36.4648 50.5981V48.3519H36.93V50.7577C36.93 51.1829 36.8104 51.5285 36.5577 51.7947C36.3052 52.0871 35.9596 52.2199 35.5476 52.2199C35.1223 52.2199 34.79 52.0871 34.5375 51.7947C34.2716 51.5285 34.1522 51.1829 34.1522 50.7577V48.3519H34.6307L34.6304 50.5981ZM28.5957 48.3522V51.715H29.7521V52.1403H28.1305V48.3519H28.5957V48.3522ZM39.987 49.9071C40.625 50.1594 40.9308 50.5317 40.9308 51.0368C40.9308 51.3824 40.8112 51.6614 40.572 51.8876C40.346 52.1136 40.0669 52.2202 39.7345 52.2202C39.4288 52.2202 39.1629 52.127 38.9372 51.9143C38.7244 51.715 38.5916 51.4623 38.5516 51.1569L39.0301 51.0503C39.0301 51.263 39.0965 51.4358 39.2428 51.5822C39.3891 51.715 39.5485 51.7814 39.7612 51.7814C39.9607 51.7814 40.12 51.7015 40.2664 51.5555C40.386 51.4226 40.4524 51.2496 40.4524 51.0371C40.4524 50.7446 40.2396 50.5056 39.8011 50.3192L39.5352 50.2265C39.0036 49.9738 38.7244 49.6549 38.7244 49.2559C38.7244 48.9635 38.844 48.711 39.0568 48.538C39.2828 48.3522 39.5352 48.2723 39.8411 48.2723C40.2796 48.2723 40.5987 48.4716 40.8112 48.8571L40.4392 49.0698C40.2928 48.8439 40.0936 48.7242 39.8276 48.7242C39.6681 48.7242 39.5085 48.764 39.3889 48.8571C39.256 48.9632 39.1894 49.0966 39.1894 49.2557C39.1894 49.4816 39.3622 49.6547 39.7343 49.7875L39.987 49.9071ZM37.568 48.3522H38.0467V52.1405H37.568V48.3522ZM56.2332 14.1079L47.0655 35.7456L44.5363 30.1957L49.2081 17.4801C49.5594 16.4967 50.7886 16.0399 52.8613 16.0399L53.5986 14.1079H42.7097L42.0071 16.0399C43.5527 16.0399 44.185 16.4965 43.939 17.4801L41.6209 23.9433L37.0546 14.1079C36.2116 13.0542 36.633 12.5271 38.2841 12.5271V10.2442H27.7461V12.5274C29.7133 12.5274 30.9425 13.0544 31.4696 14.1081L39.1974 30.5473L35.5793 40.2069C35.5088 41.5064 33.4717 42.1392 29.5375 42.1392L28.8 44.071H58.8677L63.0477 35.1841H60.8698C58.8328 39.7855 56.4793 42.1392 53.8449 42.1392H40.0401L42.0774 36.6945L43.8337 40.2069H47.7679L58.8675 14.1083C59.3945 12.5276 60.7646 11.6848 62.9071 11.6848V9.64685H53.8446V11.6844C56.5845 11.6844 57.3575 12.5274 56.2332 14.1079Z" fill="black"/>
</svg>
