<svg width="92" height="61" viewBox="0 0 92 61" fill="none" xmlns="http://www.w3.org/2000/svg">
<rect x="1.30078" y="0.5" width="89.8" height="60" rx="2.5" stroke="#050505"/>
<g clip-path="url(#clip0_1586_1162)">
<path fill-rule="evenodd" clip-rule="evenodd" d="M70.3927 37.3557H70.2509L70.2512 37.9989H70.0148V36.4868H70.5274C70.5442 36.4868 70.5611 36.489 70.5768 36.4912C70.5904 36.493 70.6031 36.4948 70.614 36.4948C70.7406 36.4948 70.835 36.511 70.8981 36.535C70.9761 36.5587 71.0433 36.6101 71.0874 36.6799C71.1345 36.7442 71.1586 36.8168 71.1586 36.8971C71.1586 37.0099 71.1188 37.1062 71.0398 37.1868C70.9608 37.2674 70.8586 37.3157 70.7322 37.3237C70.779 37.3419 70.8219 37.3692 70.8586 37.404C70.9137 37.4603 70.9925 37.5649 71.0796 37.7017L71.253 37.9992H70.9689L70.8347 37.758C70.7479 37.6051 70.6767 37.4923 70.6137 37.436C70.6061 37.4283 70.598 37.42 70.582 37.412C70.5425 37.372 70.4798 37.3557 70.3927 37.3557ZM70.6137 36.6959H70.2509H70.2506V37.1465H70.6134C70.7157 37.1382 70.7868 37.1222 70.8263 37.082C70.8494 37.0625 70.8678 37.0379 70.8801 37.01C70.8924 36.9822 70.8984 36.9519 70.8975 36.9214C70.8975 36.8731 70.8894 36.8325 70.8658 36.8005C70.8431 36.7614 70.8065 36.7326 70.7636 36.7202C70.7319 36.7122 70.6849 36.7042 70.6137 36.6959ZM36.9636 36.8651H34.8342H26.5614L25.3944 34.8783L33.0359 30.197L34.8342 33.2453L36.9636 36.8651ZM65.0463 36.8651H54.6442L48.4614 26.352L43.777 18.3967L48.4614 15.5252L51.411 13.7153L58.5713 25.8614L65.0463 36.8651ZM48.4849 39.7288C49.4156 39.7288 50.2753 40.0105 51.009 40.4929V36.8654H53.1617V49.0194H51.009V48.5208C50.2753 49.0034 49.4156 49.2849 48.4849 49.2849H48.4614C45.8907 49.2686 43.8008 47.1292 43.8008 44.5067C43.8008 41.8844 45.8907 39.7448 48.4614 39.7288H48.4849ZM48.4849 47.137C49.7313 47.137 50.7804 46.2123 51.009 45.0056V44.0081C50.7801 42.8017 49.7313 41.8844 48.4849 41.8844H48.4614C47.0497 41.8927 45.9064 43.0671 45.9064 44.5067C45.9064 45.9466 47.0497 47.121 48.4614 47.137H48.4849ZM58.5954 39.7288C59.4915 39.7278 60.3685 39.9933 61.119 40.4929V39.97H63.2722V49.0194H61.119V48.5208C60.3934 49.0034 59.5261 49.2849 58.5954 49.2849H58.5713C56.0007 49.2686 53.9111 47.1292 53.9111 44.5067C53.9111 41.8844 56.0007 39.7448 58.5713 39.7288H58.5954ZM58.5954 47.137C59.8412 47.137 60.8904 46.2123 61.119 45.0056V44.0081C60.8901 42.8017 59.8412 41.8844 58.5954 41.8844H58.5713C57.1602 41.8927 56.0166 43.0671 56.0166 44.5067C56.0166 45.9466 57.1602 47.121 58.5713 47.137H58.5954ZM70.6715 43.8046C70.7737 43.8434 70.863 43.8772 70.9294 43.9115C71.899 44.3778 72.3806 45.0859 72.3809 46.036C72.3809 47.1941 71.9077 48.0388 70.9692 48.5694C70.851 48.6337 70.7403 48.6903 70.614 48.7465C70.0066 49.0117 69.297 49.1486 68.5008 49.1486C67.3097 49.1486 66.3476 48.9311 65.6139 48.5048C64.6914 47.9582 64.2339 47.1298 64.2339 46.0197H66.6311C66.6311 46.438 66.781 46.7678 67.0732 46.9929C67.3648 47.2261 67.8615 47.3467 68.5636 47.3467C69.0917 47.3467 69.4861 47.2338 69.7467 47.0087C69.9517 46.8318 70.0458 46.6389 70.0458 46.4135C70.0458 46.0354 69.5732 45.7377 68.6347 45.5285C67.2306 45.2228 66.3476 44.9733 65.9848 44.7964C65.0225 44.3378 64.5496 43.6303 64.5496 42.6485C64.5496 41.8601 64.7942 41.1926 65.2988 40.6457C65.9294 39.9622 66.8754 39.6242 68.1296 39.6242C69.1625 39.6242 69.9904 39.7771 70.6137 40.0748C70.666 40.0967 70.7162 40.1236 70.7636 40.1551C71.6626 40.6537 72.1201 41.4741 72.1201 42.6162H69.8329C69.7618 42.2299 69.6517 41.9567 69.5018 41.8039C69.2572 41.5547 68.8393 41.4258 68.2635 41.4258C67.6954 41.4258 67.3015 41.5224 67.0805 41.7156C66.9149 41.8601 66.8284 42.0613 66.8284 42.3108C66.8284 42.6648 67.3094 42.946 68.2635 43.1634C69.3519 43.4046 70.1327 43.6138 70.6137 43.7826C70.6334 43.7901 70.6526 43.7975 70.6715 43.8046ZM24.6452 39.7288C25.5437 39.729 26.4228 39.9943 27.1766 40.4929V39.97H29.3296V49.0194H27.1766V48.5208C26.4432 49.0034 25.5759 49.2849 24.6452 49.2849H24.6214C22.0586 49.2686 19.9688 47.1292 19.9688 44.5067C19.9688 41.8844 22.0586 39.7448 24.6214 39.7288H24.6452ZM24.6452 47.137C25.8989 47.137 26.948 46.2123 27.1766 45.0056V44.0081C26.948 42.8017 25.8992 41.8844 24.6452 41.8844H24.6214C23.2179 41.8927 22.0743 43.0671 22.0743 44.5067C22.0743 45.9466 23.2179 47.121 24.6214 47.137H24.6452ZM42.957 39.013H40.6147V36.9134H42.957V39.013ZM42.957 49.0191H40.6147V39.7288H42.957V49.0191ZM34.8577 39.7288C35.7562 39.7289 36.6355 39.9943 37.3894 40.4929V36.8654H39.5423V49.0194H37.3894V48.5208C36.6355 49.0195 35.7562 49.2849 34.8577 49.2849H34.8342C32.263 49.2686 30.1734 47.1292 30.1734 44.5067C30.1734 41.8844 32.2633 39.7448 34.8342 39.7288H34.8577ZM34.8577 47.137C36.1117 47.137 37.1608 46.2123 37.3894 45.0056V44.0081C37.1605 42.8017 36.1117 41.8844 34.8577 41.8844H34.8342C33.4225 41.8927 32.279 43.0671 32.279 44.5067C32.279 45.9466 33.4225 47.121 34.8342 47.137H34.8577ZM48.4614 32.5378L51.0006 36.8651H40.6066L34.8342 27.0678L34.5818 26.6415L34.8342 26.4889L42.2236 21.9522L48.4614 32.5378ZM70.6141 38.6187C70.3777 38.6187 70.1566 38.5624 69.9362 38.4338C69.7204 38.3185 69.5443 38.1389 69.431 37.9189C69.3053 37.6938 69.2501 37.4603 69.2501 37.2271C69.2475 36.9789 69.31 36.7344 69.431 36.5191C69.5574 36.2939 69.7232 36.125 69.9437 36.0042C70.15 35.89 70.3796 35.8268 70.6141 35.8196H70.6217C70.8511 35.8196 71.0716 35.8836 71.2926 36.0042C71.5131 36.125 71.6865 36.2939 71.8053 36.5191C71.9311 36.7445 71.9863 36.9777 71.9863 37.2271C71.9868 37.47 71.9243 37.7086 71.8053 37.9189C71.6919 38.1388 71.5158 38.3183 71.3002 38.4338C71.0797 38.5624 70.8587 38.6187 70.6217 38.6187H70.6141ZM70.0547 36.2053C69.876 36.3071 69.7285 36.4576 69.6288 36.6399C69.5257 36.8251 69.4706 37.018 69.4714 37.2271C69.4714 37.4283 69.5266 37.6212 69.6294 37.8061C69.7264 37.9855 69.8711 38.1333 70.0468 38.2324C70.2197 38.3333 70.4155 38.386 70.6147 38.3853H70.6222C70.8214 38.3862 71.0173 38.3334 71.1901 38.2324C71.3661 38.1334 71.5111 37.9856 71.6081 37.8061C71.7072 37.6299 71.7589 37.4302 71.7579 37.2271C71.7579 37.018 71.7109 36.8248 71.6081 36.6399C71.5082 36.4577 71.3608 36.3073 71.1823 36.2053C71.0007 36.1088 70.8113 36.0527 70.622 36.0527H70.6144C70.425 36.0527 70.2356 36.1088 70.0547 36.2053Z" fill="#050505"/>
</g>
<defs>
<clipPath id="clip0_1586_1162">
<rect width="54" height="43" fill="white" transform="translate(19.1758 10)"/>
</clipPath>
</defs>
</svg>
