<svg width="139" height="61" viewBox="0 0 139 61" fill="none" xmlns="http://www.w3.org/2000/svg">
<rect x="1.10156" y="0.5" width="137" height="60" rx="2.5" stroke="#050505"/>
<path d="M42.6527 23.3594V32.6428C42.6527 32.7933 42.5928 32.9376 42.4861 33.044C42.3794 33.1504 42.2347 33.2102 42.0838 33.2102H39.1455C38.9946 33.2101 38.8499 33.1503 38.7432 33.0439C38.6366 32.9375 38.5766 32.7932 38.5765 32.6428V17.5428C38.5765 17.3924 38.6365 17.248 38.7432 17.1416C38.8499 17.0352 38.9946 16.9754 39.1455 16.9754H41.8646C42.0154 16.9754 42.1601 17.0352 42.2668 17.1416C42.3735 17.248 42.4335 17.3924 42.4335 17.5428V19.6693C42.4335 19.6693 43.4055 16.636 46.2901 16.636C46.2901 16.636 49.1434 16.292 50.3036 19.4504C50.3036 19.4504 51.2756 16.636 54.223 16.636C54.223 16.636 58.6061 16.376 58.6061 20.8994L58.6395 23.3906V32.6741C58.6395 32.8245 58.5796 32.9689 58.4729 33.0753C58.3662 33.1817 58.2215 33.2414 58.0706 33.2414H55.132C54.9811 33.2414 54.8365 33.1816 54.7298 33.0752C54.6231 32.9688 54.5632 32.8245 54.5631 32.6741L54.5363 22.5463C54.6198 20.253 52.7596 20.4198 52.7596 20.4198C50.4185 20.4616 50.6437 23.3906 50.6437 23.3906V32.6741C50.6437 32.8245 50.5838 32.9689 50.4771 33.0753C50.3704 33.1817 50.2257 33.2414 50.0748 33.2414H47.1365C46.9856 33.2414 46.8409 33.1816 46.7343 33.0752C46.6276 32.9688 46.5676 32.8245 46.5676 32.6741V22.7755C46.5676 22.7755 46.7394 20.3988 44.6489 20.3988C44.6491 20.3988 42.5797 20.1279 42.6527 23.3594ZM118.395 23.3316V32.6148C118.395 32.7652 118.335 32.9095 118.228 33.0159C118.122 33.1223 117.977 33.1821 117.826 33.1822L114.77 33.2412C114.619 33.2411 114.475 33.1813 114.368 33.0749C114.261 32.9685 114.201 32.8243 114.201 32.6738V22.7755C114.201 22.7755 114.373 20.3988 112.283 20.3988C112.283 20.3988 110.286 20.3007 110.286 24.0271V32.6425C110.286 32.793 110.226 32.9373 110.12 33.0437C110.013 33.1501 109.868 33.2099 109.718 33.2099H106.779C106.628 33.2099 106.483 33.1501 106.377 33.0437C106.27 32.9373 106.21 32.793 106.21 32.6425V17.5428C106.21 17.3924 106.27 17.2481 106.377 17.1417C106.483 17.0353 106.628 16.9755 106.779 16.9754H109.498C109.649 16.9754 109.794 17.0352 109.9 17.1416C110.007 17.248 110.067 17.3924 110.067 17.5428V19.6693C110.067 19.6693 111.039 16.636 113.924 16.636C113.924 16.636 117.014 16.1684 118.055 19.3916C118.055 19.3914 118.395 20.0563 118.395 23.3316ZM97.1791 16.5734C93.4215 16.5734 90.375 19.7318 90.375 25.048C90.375 29.7285 92.7267 33.5226 97.1791 33.5226C101.381 33.5226 103.983 29.7285 103.983 25.048C103.983 19.8257 100.937 16.5734 97.1791 16.5734ZM99.5508 25.2357C99.5508 27.237 99.2999 28.3003 99.2999 28.3003C98.943 30.416 97.4031 30.419 97.1761 30.4077C96.931 30.4175 95.3781 30.3955 95.0567 28.3003C95.0567 28.3003 94.8059 27.237 94.8059 25.2357V24.9022C94.8059 22.9008 95.0567 21.8376 95.0567 21.8376C95.3781 19.7424 96.9313 19.7203 97.1761 19.7298C97.4031 19.7186 98.943 19.7213 99.2999 21.8376C99.2999 21.8376 99.5508 22.9008 99.5508 24.9022V25.2357ZM88.6696 19.6483V17.4818C88.6695 17.3313 88.6096 17.1871 88.5029 17.0807C88.3962 16.9743 88.2515 16.9145 88.1007 16.9144H78.3881C78.2373 16.9144 78.0926 16.9742 77.9859 17.0806C77.8792 17.187 77.8192 17.3313 77.8192 17.4818V19.6315C77.8193 19.782 77.8793 19.9263 77.9859 20.0327C78.0926 20.1391 78.2373 20.1989 78.3881 20.1989H83.4544L77.4578 28.8749C77.4578 28.8749 77.2215 29.2267 77.2293 29.6152V32.2543C77.2293 32.2543 77.1901 33.1591 78.2191 32.634C78.2191 32.634 80.0467 31.5328 83.1112 31.5328C83.1112 31.5328 86.1376 31.4952 88.1554 32.7288C88.1554 32.7288 88.9929 33.1086 88.9929 32.2735V29.9764C88.9929 29.9764 89.0689 29.3685 88.2695 28.989C88.2695 28.989 85.9472 27.7171 82.9018 27.9258L88.6696 19.6483ZM36.3087 30.5098L35.3889 29.1133C35.0961 28.592 35.1172 28.0081 35.1172 28.0081V21.5664C35.2426 16 29.0552 16.4796 29.0552 16.4796C23.5547 16.4796 22.7423 20.7488 22.7423 20.7488C22.513 21.6071 23.1797 21.6279 23.1797 21.6279L25.8675 21.8998C25.8675 21.8998 26.3258 22.0044 26.4926 21.4603C26.4926 21.4603 26.8465 19.5978 28.8259 19.5978C30.9796 19.5978 30.9573 21.4413 30.9573 21.4413V22.9846C26.6579 23.1279 24.6655 24.3183 24.6655 24.3183C22.0108 25.8193 22.1779 28.8006 22.1779 28.8006C22.1779 33.658 26.8184 33.4493 26.8184 33.4493C29.7866 33.4493 31.5425 31.2813 31.5425 31.2813C32.065 32.199 33.0267 33.0741 33.0267 33.0741C33.5078 33.5944 34.0092 33.1576 34.0092 33.1576L36.1833 31.3024C36.6639 30.9476 36.3087 30.5098 36.3087 30.5098ZM28.267 30.4498C26.8708 30.4498 26.3518 29.0661 26.5836 27.7061C26.8157 26.3462 28.0207 25.2774 30.9575 25.3087V26.1355C31.0616 29.7475 29.4292 30.4498 28.267 30.4498ZM75.356 30.5098L74.4364 29.1133C74.1437 28.592 74.1645 28.0081 74.1645 28.0081V21.5664C74.2899 16 68.1024 16.4796 68.1024 16.4796C62.602 16.4796 61.7895 20.7488 61.7895 20.7488C61.5603 21.6071 62.227 21.6279 62.227 21.6279L64.9148 21.8998C64.9148 21.8998 65.3731 22.0044 65.5399 21.4603C65.5399 21.4603 65.8938 19.5978 67.8732 19.5978C70.0269 19.5978 70.0046 21.4413 70.0046 21.4413V22.9846C65.7054 23.1279 63.7127 24.3183 63.7127 24.3183C61.0581 25.8193 61.2252 28.8006 61.2252 28.8006C61.2252 33.658 65.8657 33.4493 65.8657 33.4493C68.8339 33.4493 70.5898 31.2813 70.5898 31.2813C71.1125 32.199 72.0737 33.0741 72.0737 33.0741C72.5549 33.5944 73.0565 33.1576 73.0565 33.1576L75.2303 31.3024C75.7112 30.9476 75.356 30.5098 75.356 30.5098ZM67.3143 30.4498C65.9181 30.4498 65.3991 29.0661 65.6309 27.7061C65.8629 26.3462 67.068 25.2774 70.0046 25.3087V26.1355C70.1089 29.7475 68.4767 30.4498 67.3143 30.4498Z" fill="black"/>
<path d="M82.7544 42.7027C82.7544 42.7027 82.5086 43.1293 82.8106 43.2246C82.8106 43.2246 83.1517 43.3574 83.5772 42.9637C83.5772 42.9637 86.6798 40.2605 86.7546 35.3391C86.7546 35.3391 86.7774 34.7245 86.5301 34.5563C86.5301 34.5563 85.558 33.6988 82.0628 33.9597C82.0628 33.9597 79.0161 34.1648 77.3528 35.6376C77.3528 35.6376 77.2033 35.7679 77.2033 35.9355C77.2033 35.9355 77.1674 36.2976 78.0818 36.1407C78.0818 36.1407 81.1282 35.7116 82.9413 35.9355C82.9413 35.9355 83.8762 36.0474 84.1378 36.3646C84.1378 36.3646 84.5677 36.7188 84.3432 37.8929C84.3432 37.8934 83.7262 40.876 82.7544 42.7027Z" fill="#F3971B"/>
<path d="M82.1397 37.9812C82.1397 37.9812 82.5947 38.5691 81.8605 39.0762C81.8605 39.0762 74.0175 45.3331 60.8484 45.3331C60.8484 45.3331 47.2925 46 35.9733 35.7429C35.9733 35.7429 35.5765 35.3954 35.8228 35.0725C35.8228 35.0725 36.043 34.7753 36.6132 35.0985C36.6132 35.0985 47.2611 41.7158 61.2454 41.7158C61.2454 41.7158 70.9655 42.0911 80.9364 37.8381C80.9364 37.8381 81.7308 37.4276 82.1397 37.9812Z" fill="#F3971B"/>
</svg>
