<svg width="92" height="61" viewBox="0 0 92 61" fill="none" xmlns="http://www.w3.org/2000/svg">
<rect x="1.10156" y="0.5" width="89.8" height="60" rx="2.5" stroke="#050505"/>
<path fill-rule="evenodd" clip-rule="evenodd" d="M54.2634 17.887C54.0133 17.887 53.7735 17.9864 53.5967 18.1632C53.4199 18.34 53.3206 18.5798 53.3206 18.8298C53.3206 19.1579 53.4813 19.4456 53.7354 19.6146L50.5383 26.4761L51.2062 17.3392C51.4486 17.3186 51.6737 17.2052 51.8345 17.0226C51.9953 16.8401 52.0793 16.6024 52.0691 16.3593C52.0588 16.1163 51.955 15.8866 51.7794 15.7182C51.6038 15.5498 51.3699 15.4558 51.1266 15.4558C50.8766 15.4558 50.6368 15.5551 50.46 15.7319C50.2832 15.9087 50.1838 16.1485 50.1838 16.3985C50.1838 16.8084 50.4452 17.1503 50.811 17.2804L48.617 26.2016L47.5316 16.3603C47.731 16.308 47.9074 16.191 48.0331 16.0276C48.1589 15.8643 48.2269 15.6638 48.2264 15.4576C48.2264 15.2076 48.1271 14.9678 47.9503 14.791C47.7735 14.6142 47.5337 14.5149 47.2837 14.5149C47.0336 14.5149 46.7938 14.6142 46.617 14.791C46.4402 14.9678 46.3409 15.2076 46.3409 15.4576C46.3409 15.9281 46.688 16.3076 47.1389 16.3783L46.2641 25.9662L43.7217 17.3082C43.8739 17.2293 44.0015 17.11 44.0905 16.9634C44.1795 16.8169 44.2266 16.6487 44.2265 16.4772C44.2265 16.2908 44.1712 16.1085 44.0676 15.9534C43.964 15.7984 43.8168 15.6776 43.6445 15.6062C43.4722 15.5349 43.2827 15.5162 43.0998 15.5526C42.9169 15.589 42.749 15.6787 42.6171 15.8106C42.4853 15.9424 42.3955 16.1104 42.3591 16.2933C42.3227 16.4762 42.3414 16.6657 42.4127 16.838C42.4841 17.0103 42.6049 17.1575 42.76 17.2611C42.915 17.3647 43.0973 17.42 43.2837 17.42C43.2972 17.42 43.3119 17.4187 43.3251 17.4181L44.4208 26.4764L40.7285 19.8855C40.9108 19.7425 41.0341 19.5374 41.0748 19.3094C41.1156 19.0813 41.0709 18.8462 40.9493 18.649C40.8278 18.4518 40.6379 18.3062 40.4158 18.2401C40.1938 18.174 39.9552 18.1919 39.7455 18.2905C39.5359 18.3891 39.3699 18.5615 39.2792 18.7747C39.1886 18.9879 39.1795 19.227 39.2539 19.4464C39.3283 19.6658 39.4809 19.8501 39.6825 19.9642C39.8842 20.0783 40.1208 20.1141 40.3471 20.0649L43.4404 29.3384C44.1463 31.495 50.4198 31.5342 51.3607 29.3384L54.1544 19.7606C54.1933 19.7655 54.2226 19.7722 54.2627 19.7722C54.5098 19.7679 54.7453 19.6667 54.9185 19.4904C55.0917 19.3142 55.1887 19.077 55.1888 18.8299C55.1889 18.5828 55.092 18.3456 54.9189 18.1693C54.7458 17.9929 54.5104 17.8916 54.2634 17.887ZM47.3232 30.3301C45.7245 30.3301 44.4285 29.8483 44.4285 29.2539C44.4285 28.6595 45.7245 28.3803 47.3232 28.3803C48.9218 28.3803 50.0479 28.6595 50.0479 29.2539C50.0479 29.8483 48.9215 30.3301 47.3232 30.3301ZM51.8676 35.8531H52.8009C53.3671 35.8531 53.5655 35.9807 53.5655 36.476V42.5769C53.5655 43.0584 53.3671 43.2423 52.8009 43.2423H51.8676V44.2285H61.4077V40.1781H60.5057C60.5057 42.175 59.7148 43.2252 58.3833 43.2252H55.7062V39.9797H56.2318C57.0956 39.9797 57.589 40.3627 57.589 41.07V41.6369H58.6239V37.1325H57.589V37.6284C57.589 38.3235 57.0677 38.7471 56.2318 38.7471H55.7062V35.8531H58.1993C60.027 35.8531 60.4065 36.9054 60.5057 38.4778H61.4077V34.7812H51.8676V35.8531ZM47.6709 43.2252H45.4101V36.5188C45.4101 36.0233 45.6085 35.8534 46.175 35.8534H47.0247V34.8051H41.7499V35.8534H42.4867C43.0532 35.8534 43.2516 36.0233 43.2516 36.5188V42.5769C43.2516 43.0584 43.0532 43.2426 42.4867 43.2426H41.7499V44.2527H50.6901V40.1028H49.6708C49.6421 41.7312 49.6534 43.2252 47.6709 43.2252ZM35.0595 34.517C31.8015 34.517 29.7734 37.0294 29.7621 39.393C29.7474 42.4523 31.7734 44.3785 34.9603 44.3785C38.3453 44.3785 40.3144 42.4808 40.3144 39.2369C40.3144 36.8332 38.1895 34.517 35.0595 34.517ZM34.9885 43.2641C33.2888 43.2641 32.3115 41.744 32.3115 39.322C32.3115 36.9565 33.3313 35.7353 35.0736 35.7353C36.7448 35.7353 37.7221 36.985 37.7221 39.4211C37.7224 41.8007 36.731 43.2641 34.9885 43.2641ZM73.9407 35.8531H74.9331V34.7919H70.1373V35.8531H70.7645C71.0002 35.8892 71.1566 36.1307 70.9218 36.3661L69.5888 37.8953L68.53 36.6012C68.2944 36.3269 68.3338 35.8559 68.7651 35.8559L69.2494 35.8528V34.7916H63.7848V35.8528C65.1573 35.892 65.5001 36.052 65.9957 36.6893L68.216 39.385L65.1965 42.561C64.6584 43.1701 64.6069 43.2246 63.7851 43.2246V44.2386H68.5689V43.2246H67.4242C67.0847 43.2246 67.0134 42.9782 67.0134 42.7945C67.0134 42.6103 67.2543 42.3978 67.3535 42.2702L69.0394 40.3624L70.7259 42.3697C70.8107 42.4829 70.9518 42.6106 70.9518 42.7523C70.9518 42.9365 70.7963 43.2249 70.4706 43.2249H69.5224V44.2389H74.9334V43.2249C74.0785 43.2249 74.002 43.1845 73.2349 42.2479L70.4119 38.9149L72.3332 36.8365C73.0408 36.086 73.3179 35.8531 73.9407 35.8531ZM27.5123 41.5249V42.01C27.5123 42.5907 27.1732 42.8879 26.89 42.8879C26.4367 42.8879 26.4086 42.3357 26.3801 42.01V41.6179C26.3801 40.3238 25.7921 39.8139 25.0471 39.4218C26.4352 39.0964 27.3562 38.2672 27.3562 37.1197C27.3562 35.6324 26.3363 34.7824 24.5237 34.7824H17.668V35.8534H18.5963C19.1629 35.8534 19.3612 35.9844 19.3612 36.48V42.5598C19.3612 43.0412 19.1629 43.2252 18.5963 43.2252H17.668V44.2298H23.008V43.2252H22.2712C21.7046 43.2252 21.5063 43.0412 21.5063 42.5598V39.853H22.4588C23.4787 39.853 24.2259 40.4233 24.2825 41.4998L24.3676 42.7428C24.4242 43.8759 25.1891 44.4847 26.5347 44.4847C27.9653 44.4847 28.3014 43.7908 28.3014 42.3176V41.5246H27.5123V41.5249ZM23.165 38.6235H21.5075V35.8451H22.9804C24.397 35.8451 24.9066 36.315 24.9066 37.2354C24.9069 38.1842 24.3547 38.6235 23.165 38.6235Z" fill="black"/>
</svg>
