<svg width="32" height="32" viewBox="0 0 32 32" fill="none" xmlns="http://www.w3.org/2000/svg">
<path d="M10.6654 29.3332C11.4017 29.3332 11.9987 28.7362 11.9987 27.9998C11.9987 27.2635 11.4017 26.6665 10.6654 26.6665C9.92898 26.6665 9.33203 27.2635 9.33203 27.9998C9.33203 28.7362 9.92898 29.3332 10.6654 29.3332Z" stroke="#050505" stroke-width="2" stroke-linecap="round" stroke-linejoin="round"/>
<path d="M25.3333 29.3332C26.0697 29.3332 26.6667 28.7362 26.6667 27.9998C26.6667 27.2635 26.0697 26.6665 25.3333 26.6665C24.597 26.6665 24 27.2635 24 27.9998C24 28.7362 24.597 29.3332 25.3333 29.3332Z" stroke="#050505" stroke-width="2" stroke-linecap="round" stroke-linejoin="round"/>
<path d="M2.73438 2.73291H5.40104L8.94771 19.2929C9.07781 19.8994 9.41527 20.4415 9.90199 20.8261C10.3887 21.2106 10.9942 21.4134 11.6144 21.3996H24.6544C25.2613 21.3986 25.8497 21.1906 26.3224 20.81C26.7951 20.4294 27.1239 19.8989 27.2544 19.3062L29.4544 9.39958H6.82771" stroke="#050505" stroke-width="2" stroke-linecap="round" stroke-linejoin="round"/>
</svg>
