<svg width="109" height="14" viewBox="0 0 109 14" fill="none" xmlns="http://www.w3.org/2000/svg">
<path d="M3.296 1.224L6.736 9.704L5.392 9.432L8.512 1.224H11.264L5.888 13.544L0.512 1.224H3.296ZM11.6439 13L16.9559 0.759999H17.0839L22.3959 13H19.7079L16.3159 4.392L17.9959 3.24L13.9319 13H11.6439ZM15.2759 8.744H18.8119L19.6279 10.696H14.5559L15.2759 8.744ZM25.3925 13V0.743999H25.4085L31.9525 10.024L30.9605 9.8L37.4885 0.743999H37.5205V13H35.2005V5.976L35.3445 7.176L31.3605 12.84H31.3285L27.2325 7.176L27.6325 6.072V13H25.3925ZM45.4124 1.224C46.383 1.224 47.2044 1.38933 47.8764 1.72C48.5484 2.04 49.0604 2.49867 49.4124 3.096C49.7644 3.68267 49.9404 4.38133 49.9404 5.192C49.9404 5.672 49.8657 6.15733 49.7164 6.648C49.5777 7.128 49.3484 7.56533 49.0284 7.96C48.719 8.35467 48.2977 8.67467 47.7644 8.92C47.2417 9.15467 46.5964 9.272 45.8284 9.272H44.1644V13H41.8444V1.224H45.4124ZM45.8124 7.016C46.1644 7.016 46.4577 6.95733 46.6924 6.84C46.927 6.712 47.1084 6.55733 47.2364 6.376C47.375 6.184 47.471 5.98667 47.5244 5.784C47.5884 5.58133 47.6204 5.40533 47.6204 5.256C47.6204 5.13867 47.599 4.984 47.5564 4.792C47.5244 4.58933 47.4497 4.38667 47.3324 4.184C47.215 3.98133 47.0337 3.81067 46.7884 3.672C46.5537 3.53333 46.2337 3.464 45.8284 3.464H44.1644V7.016H45.8124ZM59.7794 13V1.224H63.2994C64.4834 1.224 65.4914 1.4 66.3234 1.752C67.1554 2.104 67.822 2.57333 68.3234 3.16C68.8354 3.74667 69.2087 4.40267 69.4434 5.128C69.678 5.85333 69.7954 6.584 69.7954 7.32C69.7954 8.19467 69.6354 8.984 69.3154 9.688C69.006 10.3813 68.5794 10.9787 68.0354 11.48C67.4914 11.9707 66.862 12.3493 66.1474 12.616C65.4327 12.872 64.6754 13 63.8754 13H59.7794ZM62.0994 10.76H63.4754C64.062 10.76 64.5954 10.6853 65.0754 10.536C65.5554 10.376 65.966 10.1467 66.3074 9.848C66.6594 9.54933 66.926 9.176 67.1074 8.728C67.2994 8.26933 67.3954 7.74667 67.3954 7.16C67.3954 6.392 67.2674 5.768 67.0114 5.288C66.766 4.79733 66.4567 4.41867 66.0834 4.152C65.7207 3.88533 65.3474 3.704 64.9634 3.608C64.5794 3.50133 64.254 3.448 63.9874 3.448H62.0994V10.76ZM76.9711 1.224C77.7071 1.224 78.3631 1.32 78.9391 1.512C79.5151 1.69333 79.9951 1.96 80.3791 2.312C80.7738 2.65333 81.0725 3.06933 81.2751 3.56C81.4778 4.04 81.5791 4.584 81.5791 5.192C81.5791 5.672 81.5045 6.152 81.3551 6.632C81.2165 7.112 80.9818 7.54933 80.6511 7.944C80.3311 8.33867 79.9045 8.65867 79.3711 8.904C78.8378 9.13867 78.1765 9.256 77.3871 9.256H75.7231V13H73.4031V1.224H76.9711ZM77.3711 7.016C77.7231 7.016 78.0165 6.95733 78.2511 6.84C78.4858 6.72267 78.6671 6.57333 78.7951 6.392C78.9338 6.21067 79.0298 6.024 79.0831 5.832C79.1471 5.62933 79.1791 5.44267 79.1791 5.272C79.1791 5.144 79.1578 4.984 79.1151 4.792C79.0831 4.58933 79.0085 4.38667 78.8911 4.184C78.7738 3.98133 78.5925 3.81067 78.3471 3.672C78.1125 3.53333 77.7925 3.464 77.3871 3.464H75.7231V7.016H77.3711ZM79.5471 8.456L82.4591 13H79.7551L76.7791 8.52L79.5471 8.456ZM84.5256 7.128C84.5256 6.31733 84.6803 5.54933 84.9896 4.824C85.299 4.09867 85.7256 3.45867 86.2696 2.904C86.8243 2.33867 87.4643 1.896 88.1896 1.576C88.915 1.256 89.6936 1.096 90.5256 1.096C91.347 1.096 92.1203 1.256 92.8456 1.576C93.571 1.896 94.211 2.33867 94.7656 2.904C95.331 3.45867 95.7683 4.09867 96.0776 4.824C96.3976 5.54933 96.5576 6.31733 96.5576 7.128C96.5576 7.96 96.3976 8.73867 96.0776 9.464C95.7683 10.1893 95.331 10.8293 94.7656 11.384C94.211 11.928 93.571 12.3547 92.8456 12.664C92.1203 12.9733 91.347 13.128 90.5256 13.128C89.6936 13.128 88.915 12.9733 88.1896 12.664C87.4643 12.3547 86.8243 11.928 86.2696 11.384C85.7256 10.8293 85.299 10.1893 84.9896 9.464C84.6803 8.73867 84.5256 7.96 84.5256 7.128ZM86.9256 7.128C86.9256 7.65067 87.0163 8.14133 87.1976 8.6C87.3896 9.048 87.651 9.448 87.9816 9.8C88.323 10.1413 88.7123 10.408 89.1496 10.6C89.5976 10.792 90.083 10.888 90.6056 10.888C91.107 10.888 91.571 10.792 91.9976 10.6C92.435 10.408 92.8136 10.1413 93.1336 9.8C93.4536 9.448 93.7043 9.048 93.8856 8.6C94.067 8.14133 94.1576 7.65067 94.1576 7.128C94.1576 6.59467 94.0616 6.09867 93.8696 5.64C93.6883 5.18133 93.4323 4.78133 93.1016 4.44C92.7816 4.088 92.403 3.816 91.9656 3.624C91.5283 3.432 91.0536 3.336 90.5416 3.336C90.0296 3.336 89.555 3.432 89.1176 3.624C88.6803 3.816 88.2963 4.088 87.9656 4.44C87.635 4.78133 87.379 5.18133 87.1976 5.64C87.0163 6.09867 86.9256 6.59467 86.9256 7.128ZM103.719 1.224C104.689 1.224 105.511 1.38933 106.183 1.72C106.855 2.04 107.367 2.49867 107.719 3.096C108.071 3.68267 108.247 4.38133 108.247 5.192C108.247 5.672 108.172 6.15733 108.023 6.648C107.884 7.128 107.655 7.56533 107.335 7.96C107.025 8.35467 106.604 8.67467 106.071 8.92C105.548 9.15467 104.903 9.272 104.135 9.272H102.471V13H100.151V1.224H103.719ZM104.119 7.016C104.471 7.016 104.764 6.95733 104.999 6.84C105.233 6.712 105.415 6.55733 105.543 6.376C105.681 6.184 105.777 5.98667 105.831 5.784C105.895 5.58133 105.927 5.40533 105.927 5.256C105.927 5.13867 105.905 4.984 105.863 4.792C105.831 4.58933 105.756 4.38667 105.639 4.184C105.521 3.98133 105.34 3.81067 105.095 3.672C104.86 3.53333 104.54 3.464 104.135 3.464H102.471V7.016H104.119Z" fill="black"/>
</svg>
