<svg width="14" height="14" viewBox="0 0 14 14" fill="none" xmlns="http://www.w3.org/2000/svg">
<path d="M13.0963 12.8859L8.69477 5.96852L13.038 1.19078C13.1362 1.08006 13.1868 0.935076 13.1789 0.787273C13.1709 0.639471 13.105 0.500759 12.9955 0.401211C12.886 0.301663 12.7416 0.249303 12.5937 0.255481C12.4458 0.26166 12.3063 0.32588 12.2055 0.434219L8.06829 4.98484L5.22133 0.510859C5.17057 0.430952 5.10045 0.365151 5.01749 0.319552C4.93453 0.273952 4.84139 0.250029 4.74672 0.25H1.37172C1.27087 0.249951 1.17185 0.277019 1.08505 0.32837C0.998247 0.379721 0.926846 0.453466 0.878325 0.541883C0.829803 0.630299 0.805946 0.730135 0.809252 0.830936C0.812558 0.931738 0.842904 1.0298 0.897114 1.11484L5.29868 8.03148L0.955474 12.8127C0.904755 12.8672 0.865354 12.9312 0.839555 13.001C0.813755 13.0709 0.802071 13.1451 0.805178 13.2195C0.808285 13.2939 0.826123 13.3669 0.857656 13.4343C0.88919 13.5017 0.933792 13.5622 0.988879 13.6123C1.04397 13.6623 1.10844 13.701 1.17857 13.7259C1.24869 13.7509 1.32308 13.7617 1.39741 13.7577C1.47173 13.7537 1.54453 13.735 1.61157 13.7026C1.67862 13.6703 1.73858 13.625 1.78797 13.5693L5.92516 9.01867L8.77212 13.4927C8.8233 13.5719 8.89359 13.637 8.97653 13.682C9.05946 13.727 9.15238 13.7503 9.24672 13.75H12.6217C12.7225 13.75 12.8214 13.7229 12.9081 13.6716C12.9948 13.6202 13.0661 13.5466 13.1146 13.4583C13.1631 13.37 13.187 13.2703 13.1838 13.1696C13.1806 13.0689 13.1504 12.9709 13.0963 12.8859ZM9.5554 12.625L2.39618 1.375H4.43524L11.5973 12.625H9.5554Z" fill="#050505"/>
</svg>
